<?xml version="1.0" encoding="UTF-8"?>
<!--Generator: Apple Native CoreSVG 123-->
<!DOCTYPE svg
PUBLIC "-//W3C//DTD SVG 1.1//EN"
       "http://www.w3.org/Graphics/SVG/1.1/DTD/svg11.dtd">
<svg version="1.1" xmlns="http://www.w3.org/2000/svg" xmlns:xlink="http://www.w3.org/1999/xlink" width="3300" height="2200">
 <!--glyph: "uni10064A.medium", point size: 100.000000, font version: "Version 15.0d4e20", template writer version: "2"-->
 <g id="Notes">
  <rect height="2200" id="artboard" style="fill:white;opacity:1" width="3300" x="0" y="0"/>
  <line id="" style="fill:none;stroke:black;opacity:1;stroke-width:0.5;" x1="263" x2="3036" y1="292" y2="292"/>
  <text style="stroke:none;fill:black;font-family:-apple-system,&quot;SF Pro Display&quot;,&quot;SF Pro Text&quot;,Helvetica,sans-serif;font-weight:bold;" transform="matrix(1 0 0 1 263 322)">Weight/Scale Variations</text>
  <text style="stroke:none;fill:black;font-family:-apple-system,&quot;SF Pro Display&quot;,&quot;SF Pro Text&quot;,Helvetica,sans-serif;text-anchor:middle;" transform="matrix(1 0 0 1 559.711 322)">Ultralight</text>
  <text style="stroke:none;fill:black;font-family:-apple-system,&quot;SF Pro Display&quot;,&quot;SF Pro Text&quot;,Helvetica,sans-serif;text-anchor:middle;" transform="matrix(1 0 0 1 856.422 322)">Thin</text>
  <text style="stroke:none;fill:black;font-family:-apple-system,&quot;SF Pro Display&quot;,&quot;SF Pro Text&quot;,Helvetica,sans-serif;text-anchor:middle;" transform="matrix(1 0 0 1 1153.13 322)">Light</text>
  <text style="stroke:none;fill:black;font-family:-apple-system,&quot;SF Pro Display&quot;,&quot;SF Pro Text&quot;,Helvetica,sans-serif;text-anchor:middle;" transform="matrix(1 0 0 1 1449.84 322)">Regular</text>
  <text style="stroke:none;fill:black;font-family:-apple-system,&quot;SF Pro Display&quot;,&quot;SF Pro Text&quot;,Helvetica,sans-serif;text-anchor:middle;" transform="matrix(1 0 0 1 1746.56 322)">Medium</text>
  <text style="stroke:none;fill:black;font-family:-apple-system,&quot;SF Pro Display&quot;,&quot;SF Pro Text&quot;,Helvetica,sans-serif;text-anchor:middle;" transform="matrix(1 0 0 1 2043.27 322)">Semibold</text>
  <text style="stroke:none;fill:black;font-family:-apple-system,&quot;SF Pro Display&quot;,&quot;SF Pro Text&quot;,Helvetica,sans-serif;text-anchor:middle;" transform="matrix(1 0 0 1 2339.98 322)">Bold</text>
  <text style="stroke:none;fill:black;font-family:-apple-system,&quot;SF Pro Display&quot;,&quot;SF Pro Text&quot;,Helvetica,sans-serif;text-anchor:middle;" transform="matrix(1 0 0 1 2636.69 322)">Heavy</text>
  <text style="stroke:none;fill:black;font-family:-apple-system,&quot;SF Pro Display&quot;,&quot;SF Pro Text&quot;,Helvetica,sans-serif;text-anchor:middle;" transform="matrix(1 0 0 1 2933.4 322)">Black</text>
  <line id="" style="fill:none;stroke:black;opacity:1;stroke-width:0.5;" x1="263" x2="3036" y1="1903" y2="1903"/>
  <g id="" transform="matrix(1 0 0 1 263 1933)">
   <path d="M 9.24805 0.830078 C 13.5547 0.830078 17.1387 -2.74414 17.1387 -7.05078 C 17.1387 -11.3574 13.5449 -14.9316 9.23828 -14.9316 C 4.94141 -14.9316 1.36719 -11.3574 1.36719 -7.05078 C 1.36719 -2.74414 4.95117 0.830078 9.24805 0.830078 Z M 9.24805 -0.654297 C 5.70312 -0.654297 2.87109 -3.49609 2.87109 -7.05078 C 2.87109 -10.6055 5.69336 -13.4473 9.23828 -13.4473 C 12.793 -13.4473 15.6348 -10.6055 15.6445 -7.05078 C 15.6543 -3.49609 12.8027 -0.654297 9.24805 -0.654297 Z M 9.22852 -3.42773 C 9.69727 -3.42773 9.9707 -3.74023 9.9707 -4.25781 L 9.9707 -6.31836 L 12.1973 -6.31836 C 12.6953 -6.31836 13.0371 -6.57227 13.0371 -7.04102 C 13.0371 -7.51953 12.7148 -7.7832 12.1973 -7.7832 L 9.9707 -7.7832 L 9.9707 -10.0098 C 9.9707 -10.5273 9.69727 -10.8496 9.22852 -10.8496 C 8.75977 -10.8496 8.50586 -10.5078 8.50586 -10.0098 L 8.50586 -7.7832 L 6.29883 -7.7832 C 5.78125 -7.7832 5.44922 -7.51953 5.44922 -7.04102 C 5.44922 -6.57227 5.80078 -6.31836 6.29883 -6.31836 L 8.50586 -6.31836 L 8.50586 -4.25781 C 8.50586 -3.75977 8.75977 -3.42773 9.22852 -3.42773 Z"/>
  </g>
  <g id="" transform="matrix(1 0 0 1 281.506 1933)">
   <path d="M 11.709 2.91016 C 17.1484 2.91016 21.6699 -1.60156 21.6699 -7.05078 C 21.6699 -12.4902 17.1387 -17.0117 11.6992 -17.0117 C 6.25 -17.0117 1.74805 -12.4902 1.74805 -7.05078 C 1.74805 -1.60156 6.25977 2.91016 11.709 2.91016 Z M 11.709 1.25 C 7.09961 1.25 3.41797 -2.44141 3.41797 -7.05078 C 3.41797 -11.6504 7.08984 -15.3516 11.6992 -15.3516 C 16.2988 -15.3516 20 -11.6504 20.0098 -7.05078 C 20.0195 -2.44141 16.3086 1.25 11.709 1.25 Z M 11.6797 -2.41211 C 12.207 -2.41211 12.5195 -2.77344 12.5195 -3.33984 L 12.5195 -6.23047 L 15.5762 -6.23047 C 16.123 -6.23047 16.5039 -6.51367 16.5039 -7.03125 C 16.5039 -7.55859 16.1426 -7.86133 15.5762 -7.86133 L 12.5195 -7.86133 L 12.5195 -10.9277 C 12.5195 -11.5039 12.207 -11.8555 11.6797 -11.8555 C 11.1621 -11.8555 10.8789 -11.4844 10.8789 -10.9277 L 10.8789 -7.86133 L 7.83203 -7.86133 C 7.25586 -7.86133 6.89453 -7.55859 6.89453 -7.03125 C 6.89453 -6.51367 7.28516 -6.23047 7.83203 -6.23047 L 10.8789 -6.23047 L 10.8789 -3.33984 C 10.8789 -2.79297 11.1621 -2.41211 11.6797 -2.41211 Z"/>
  </g>
  <g id="" transform="matrix(1 0 0 1 304.914 1933)">
   <path d="M 14.9707 5.67383 C 21.9336 5.67383 27.6855 -0.078125 27.6855 -7.04102 C 27.6855 -14.0039 21.9238 -19.7559 14.9609 -19.7559 C 7.99805 -19.7559 2.25586 -14.0039 2.25586 -7.04102 C 2.25586 -0.078125 8.00781 5.67383 14.9707 5.67383 Z M 14.9707 3.85742 C 8.92578 3.85742 4.08203 -1.00586 4.08203 -7.04102 C 4.08203 -13.0762 8.91602 -17.9395 14.9609 -17.9395 C 20.9961 -17.9395 25.8594 -13.0762 25.8691 -7.04102 C 25.8789 -1.00586 21.0059 3.85742 14.9707 3.85742 Z M 14.9414 -1.06445 C 15.5176 -1.06445 15.8594 -1.45508 15.8594 -2.06055 L 15.8594 -6.13281 L 20.0977 -6.13281 C 20.6934 -6.13281 21.1133 -6.46484 21.1133 -7.02148 C 21.1133 -7.59766 20.7227 -7.93945 20.0977 -7.93945 L 15.8594 -7.93945 L 15.8594 -12.1875 C 15.8594 -12.8027 15.5176 -13.1934 14.9414 -13.1934 C 14.3848 -13.1934 14.0625 -12.7832 14.0625 -12.1875 L 14.0625 -7.93945 L 9.82422 -7.93945 C 9.20898 -7.93945 8.80859 -7.59766 8.80859 -7.02148 C 8.80859 -6.46484 9.23828 -6.13281 9.82422 -6.13281 L 14.0625 -6.13281 L 14.0625 -2.06055 C 14.0625 -1.47461 14.3848 -1.06445 14.9414 -1.06445 Z"/>
  </g>
  <text style="stroke:none;fill:black;font-family:-apple-system,&quot;SF Pro Display&quot;,&quot;SF Pro Text&quot;,Helvetica,sans-serif;font-weight:bold;" transform="matrix(1 0 0 1 263 1953)">Design Variations</text>
  <text style="stroke:none;fill:black;font-family:-apple-system,&quot;SF Pro Display&quot;,&quot;SF Pro Text&quot;,Helvetica,sans-serif;" transform="matrix(1 0 0 1 263 1971)">Symbols are supported in up to nine weights and three scales.</text>
  <text style="stroke:none;fill:black;font-family:-apple-system,&quot;SF Pro Display&quot;,&quot;SF Pro Text&quot;,Helvetica,sans-serif;" transform="matrix(1 0 0 1 263 1989)">For optimal layout with text and other symbols, vertically align</text>
  <text style="stroke:none;fill:black;font-family:-apple-system,&quot;SF Pro Display&quot;,&quot;SF Pro Text&quot;,Helvetica,sans-serif;" transform="matrix(1 0 0 1 263 2007)">symbols with the adjacent text.</text>
  <rect height="14" id="" style="fill:#00AEEF;stroke:none;opacity:0.4;" width="3" x="776" y="1919"/>
  <g id="" transform="matrix(1 0 0 1 779 1933)">
   <path d="M 10.5273 0 L 12.373 0 L 7.17773 -14.0918 L 5.43945 -14.0918 L 0.244141 0 L 2.08984 0 L 3.50586 -4.0332 L 9.11133 -4.0332 Z M 6.2793 -11.9531 L 6.33789 -11.9531 L 8.59375 -5.52734 L 4.02344 -5.52734 Z"/>
  </g>
  <rect height="14" id="" style="fill:#00AEEF;stroke:none;opacity:0.4;" width="3" x="791.617" y="1919"/>
  <text style="stroke:none;fill:black;font-family:-apple-system,&quot;SF Pro Display&quot;,&quot;SF Pro Text&quot;,Helvetica,sans-serif;font-weight:bold;" transform="matrix(1 0 0 1 776 1953)">Side Bearings</text>
  <text style="stroke:none;fill:black;font-family:-apple-system,&quot;SF Pro Display&quot;,&quot;SF Pro Text&quot;,Helvetica,sans-serif;" transform="matrix(1 0 0 1 776 1971)">Horizontal padding on the left and right side of each symbol</text>
  <text style="stroke:none;fill:black;font-family:-apple-system,&quot;SF Pro Display&quot;,&quot;SF Pro Text&quot;,Helvetica,sans-serif;" transform="matrix(1 0 0 1 776 1989)">can be adjusted by modifying the width of the blue rectangles.</text>
  <text style="stroke:none;fill:black;font-family:-apple-system,&quot;SF Pro Display&quot;,&quot;SF Pro Text&quot;,Helvetica,sans-serif;" transform="matrix(1 0 0 1 776 2007)">Modifications are automatically applied proportionally to all</text>
  <text style="stroke:none;fill:black;font-family:-apple-system,&quot;SF Pro Display&quot;,&quot;SF Pro Text&quot;,Helvetica,sans-serif;" transform="matrix(1 0 0 1 776 2025)">scales and weights.</text>
  <g id="" transform="matrix(1 0 0 1 1289 1933)">
   <path d="M 2.96875 2.35352 L 3.80859 3.19336 C 4.84375 4.22852 6.12305 4.15039 7.19727 2.97852 L 16.1621 -6.82617 C 16.5527 -6.74805 16.9629 -6.8457 17.4902 -7.02148 C 18.1738 -7.25586 18.2715 -7.25586 18.3887 -7.13867 C 18.5352 -7.01172 18.4863 -6.89453 18.2422 -6.25 C 17.8809 -5.33203 17.8125 -4.79492 18.5547 -4.02344 L 19.4238 -3.13477 C 20.2734 -2.24609 21.3281 -2.26562 22.2168 -3.14453 L 25.0586 -5.97656 C 25.9473 -6.86523 25.957 -7.92969 25.0781 -8.7793 L 24.1797 -9.64844 C 23.4082 -10.4004 22.8711 -10.3516 21.9629 -9.98047 C 21.3184 -9.72656 21.2012 -9.6875 21.0645 -9.81445 C 20.9375 -9.93164 20.9473 -10.0391 21.1816 -10.7129 C 21.5332 -11.6895 21.5723 -12.2852 20.752 -13.0957 L 19.3359 -14.5117 C 15.1953 -18.6133 11.2305 -18.7402 7.65625 -15.4395 C 7.08008 -14.9023 6.99219 -14.1504 7.53906 -13.6133 L 7.79297 -13.3594 C 8.22266 -12.9297 8.86719 -12.8418 9.41406 -13.1152 C 11.0645 -13.9453 12.2559 -14.0234 13.457 -12.9785 L 13.0273 -11.416 C 12.8516 -10.8008 12.793 -10.3418 12.9199 -9.93164 L 3.18359 -1.04492 C 2.02148 0.0292969 1.93359 1.32812 2.96875 2.35352 Z M 8.96484 -14.4922 C 8.89648 -14.5703 8.86719 -14.6582 8.99414 -14.7559 C 11.709 -17.2852 15.0391 -16.8457 18.3496 -13.5254 L 19.6973 -12.168 C 20.0879 -11.7773 20.0977 -11.582 19.8828 -10.8691 C 19.6582 -10.127 19.502 -9.53125 20.1465 -8.88672 C 20.8105 -8.22266 21.2891 -8.41797 22.207 -8.63281 C 22.9004 -8.79883 23.0664 -8.79883 23.4473 -8.41797 L 24.0918 -7.77344 C 24.4043 -7.48047 24.4141 -7.32422 24.0723 -6.97266 L 21.2207 -4.13086 C 20.8887 -3.79883 20.7227 -3.79883 20.4297 -4.10156 L 19.7852 -4.75586 C 19.4141 -5.13672 19.4141 -5.30273 19.5801 -6.01562 C 19.7852 -6.88477 19.9805 -7.38281 19.3262 -8.04688 C 18.6719 -8.7207 18.0762 -8.57422 17.3438 -8.33008 C 16.5625 -8.06641 16.3281 -8.06641 15.8984 -8.49609 L 14.6094 -9.78516 C 14.1699 -10.2246 14.1309 -10.4395 14.2676 -10.9082 L 15.0293 -13.3984 C 13.3887 -15.2832 11.4941 -15.5566 9.20898 -14.4434 C 9.11133 -14.3945 9.04297 -14.4141 8.96484 -14.4922 Z M 3.96484 1.36719 C 3.52539 0.927734 3.54492 0.537109 4.14062 -0.00976562 L 13.7402 -8.81836 L 15 -7.55859 L 6.17188 2.02148 C 5.625 2.60742 5.24414 2.64648 4.79492 2.19727 Z"/>
  </g>
  <text style="stroke:none;fill:black;font-family:-apple-system,&quot;SF Pro Display&quot;,&quot;SF Pro Text&quot;,Helvetica,sans-serif;font-weight:bold;" transform="matrix(1 0 0 1 1289 1953)">Exporting</text>
  <text style="stroke:none;fill:black;font-family:-apple-system,&quot;SF Pro Display&quot;,&quot;SF Pro Text&quot;,Helvetica,sans-serif;" transform="matrix(1 0 0 1 1289 1971)">Symbols should be outlined when exporting to ensure the</text>
  <text style="stroke:none;fill:black;font-family:-apple-system,&quot;SF Pro Display&quot;,&quot;SF Pro Text&quot;,Helvetica,sans-serif;" transform="matrix(1 0 0 1 1289 1989)">design is preserved when submitting to Xcode.</text>
  <text id="template-version" style="stroke:none;fill:black;font-family:-apple-system,&quot;SF Pro Display&quot;,&quot;SF Pro Text&quot;,Helvetica,sans-serif;text-anchor:end;" transform="matrix(1 0 0 1 3036 1933)">Template v.0.1</text>
  <text style="stroke:none;fill:black;font-family:-apple-system,&quot;SF Pro Display&quot;,&quot;SF Pro Text&quot;,Helvetica,sans-serif;text-anchor:end;" transform="matrix(1 0 0 1 3036 1951)">Generated from map</text>
  <text style="stroke:none;fill:black;font-family:-apple-system,&quot;SF Pro Display&quot;,&quot;SF Pro Text&quot;,Helvetica,sans-serif;text-anchor:end;" transform="matrix(1 0 0 1 3036 1969)">Typeset at 100 points</text>
  <text style="stroke:none;fill:black;font-family:-apple-system,&quot;SF Pro Display&quot;,&quot;SF Pro Text&quot;,Helvetica,sans-serif;" transform="matrix(1 0 0 1 263 726)">Small</text>
  <text style="stroke:none;fill:black;font-family:-apple-system,&quot;SF Pro Display&quot;,&quot;SF Pro Text&quot;,Helvetica,sans-serif;" transform="matrix(1 0 0 1 263 1156)">Medium</text>
  <text style="stroke:none;fill:black;font-family:-apple-system,&quot;SF Pro Display&quot;,&quot;SF Pro Text&quot;,Helvetica,sans-serif;" transform="matrix(1 0 0 1 263 1586)">Large</text>
 </g>
 <g id="Guides">
  <g id="H-reference" style="fill:#27AAE1;stroke:none;" transform="matrix(1 0 0 1 339 696)">
   <path d="M 54.9316 0 L 57.666 0 L 30.5664 -70.459 L 28.0762 -70.459 L 0.976562 0 L 3.66211 0 L 12.9395 -24.4629 L 45.7031 -24.4629 Z M 29.1992 -67.0898 L 29.4434 -67.0898 L 44.8242 -26.709 L 13.8184 -26.709 Z"/>
  </g>
  <line id="Baseline-S" style="fill:none;stroke:#27AAE1;opacity:1;stroke-width:0.577;" x1="263" x2="3036" y1="696" y2="696"/>
  <line id="Capline-S" style="fill:none;stroke:#27AAE1;opacity:1;stroke-width:0.577;" x1="263" x2="3036" y1="625.541" y2="625.541"/>
  <g id="H-reference" style="fill:#27AAE1;stroke:none;" transform="matrix(1 0 0 1 339 1126)">
   <path d="M 54.9316 0 L 57.666 0 L 30.5664 -70.459 L 28.0762 -70.459 L 0.976562 0 L 3.66211 0 L 12.9395 -24.4629 L 45.7031 -24.4629 Z M 29.1992 -67.0898 L 29.4434 -67.0898 L 44.8242 -26.709 L 13.8184 -26.709 Z"/>
  </g>
  <line id="Baseline-M" style="fill:none;stroke:#27AAE1;opacity:1;stroke-width:0.577;" x1="263" x2="3036" y1="1126" y2="1126"/>
  <line id="Capline-M" style="fill:none;stroke:#27AAE1;opacity:1;stroke-width:0.577;" x1="263" x2="3036" y1="1055.54" y2="1055.54"/>
  <g id="H-reference" style="fill:#27AAE1;stroke:none;" transform="matrix(1 0 0 1 339 1556)">
   <path d="M 54.9316 0 L 57.666 0 L 30.5664 -70.459 L 28.0762 -70.459 L 0.976562 0 L 3.66211 0 L 12.9395 -24.4629 L 45.7031 -24.4629 Z M 29.1992 -67.0898 L 29.4434 -67.0898 L 44.8242 -26.709 L 13.8184 -26.709 Z"/>
  </g>
  <line id="Baseline-L" style="fill:none;stroke:#27AAE1;opacity:1;stroke-width:0.577;" x1="263" x2="3036" y1="1556" y2="1556"/>
  <line id="Capline-L" style="fill:none;stroke:#27AAE1;opacity:1;stroke-width:0.577;" x1="263" x2="3036" y1="1485.54" y2="1485.54"/>
  <rect height="119.336" id="left-margin" style="fill:#00AEEF;stroke:none;opacity:0.4;" width="12.4512" x="1386.61" y="1030.79"/>
  <rect height="119.336" id="right-margin" style="fill:#00AEEF;stroke:none;opacity:0.4;" width="12.4512" x="1500.63" y="1030.79"/>
 </g>
 <g id="Symbols">
  <g id="Ultralight-S" transform="matrix(1 0 0 1 513.691 696)">
   <path d="M 57.7637 0.683594 C 58.7402 0.683594 59.8145 0.341797 60.9863 -0.390625 L 80.3223 -11.8164 C 81.7383 -12.6465 82.2754 -13.3789 82.2754 -15.1855 L 82.2754 -66.6504 C 82.2754 -68.5059 81.2988 -69.5312 79.8828 -69.5312 C 79.248 -69.5312 78.6133 -69.2383 77.9297 -68.8965 L 57.9102 -58.0078 L 38.0371 -70.0195 C 36.7188 -70.8008 35.4492 -71.1914 34.2285 -71.1914 C 32.9102 -71.1914 31.6406 -70.8008 30.3711 -70.0195 L 11.7188 -58.6426 C 10.3516 -57.8613 9.76562 -57.0801 9.76562 -55.2734 L 9.76562 -3.80859 C 9.76562 -2.00195 10.7422 -0.927734 12.1582 -0.927734 C 12.793 -0.927734 13.4277 -1.2207 14.1113 -1.61133 L 34.082 -12.8906 L 54.4434 -0.390625 C 55.6641 0.341797 56.6895 0.683594 57.7637 0.683594 Z M 12.7441 -3.4668 C 12.3047 -3.4668 11.9629 -3.80859 11.9629 -4.3457 L 11.9629 -54.8828 C 11.9629 -55.8105 12.207 -56.4453 13.1348 -56.9824 L 31.9824 -68.4082 C 32.373 -68.6035 32.7637 -68.7988 33.1543 -68.8965 L 33.1543 -14.7949 L 13.3301 -3.66211 C 13.1348 -3.56445 12.9395 -3.4668 12.7441 -3.4668 Z M 56.6895 -1.9043 C 56.25 -2.00195 55.8105 -2.19727 55.4688 -2.39258 L 35.4004 -14.7461 L 35.4004 -68.8477 C 35.791 -68.75 36.2305 -68.5547 36.5723 -68.3594 L 56.6895 -56.1035 Z M 58.8867 -1.80664 L 58.8867 -56.1035 L 78.7109 -66.8457 C 78.9062 -66.9434 79.1016 -66.9922 79.2969 -66.9922 C 79.7363 -66.9922 80.0781 -66.6992 80.0781 -66.1621 L 80.0781 -15.625 C 80.0781 -14.6973 79.834 -14.0625 78.9062 -13.5254 L 60.0586 -2.34375 C 59.668 -2.14844 59.2773 -1.9043 58.8867 -1.80664 Z"/>
  </g>
  <g id="Thin-S" transform="matrix(1 0 0 1 809.425 696)">
   <path d="M 58.9844 1.41602 C 60.0586 1.41602 61.1816 1.07422 62.4023 0.390625 L 81.9336 -11.084 C 83.5449 -12.0117 84.2285 -13.0371 84.2285 -15.0879 L 84.2285 -66.9922 C 84.2285 -69.0918 83.1055 -70.2637 81.2988 -70.2637 C 80.5664 -70.2637 79.834 -69.9707 79.0039 -69.5312 L 58.8867 -58.5449 L 38.7695 -70.752 C 37.5 -71.5332 36.2305 -71.9238 34.9609 -71.9238 C 33.6426 -71.9238 32.3242 -71.5332 31.1035 -70.752 L 12.1094 -59.4238 C 10.4492 -58.4473 9.76562 -57.4219 9.76562 -55.4199 L 9.76562 -3.51562 C 9.76562 -1.41602 10.8887 -0.195312 12.6953 -0.195312 C 13.4277 -0.195312 14.1602 -0.488281 14.9902 -0.927734 L 34.8145 -12.0117 L 55.4199 0.341797 C 56.6406 1.07422 57.8125 1.41602 58.9844 1.41602 Z M 13.7695 -4.24805 C 13.3789 -4.24805 13.0859 -4.54102 13.0859 -5.0293 L 13.0859 -54.6875 C 13.0859 -55.6152 13.3301 -56.25 14.2578 -56.7871 L 32.2266 -67.5781 C 32.666 -67.8223 33.0566 -68.0176 33.4961 -68.1641 L 33.4961 -15.0879 L 14.3555 -4.39453 C 14.1602 -4.29688 13.9648 -4.24805 13.7695 -4.24805 Z M 57.2266 -2.73438 C 56.7871 -2.92969 56.2988 -3.125 55.9082 -3.36914 L 36.7676 -14.8438 L 36.7676 -67.9199 C 37.1582 -67.7734 37.5977 -67.5781 37.9395 -67.334 L 57.2266 -55.5664 Z M 60.5469 -2.49023 L 60.5469 -55.7129 L 79.6875 -66.1133 C 79.8828 -66.2109 80.0781 -66.2598 80.2246 -66.2598 C 80.6641 -66.2598 80.957 -65.9668 80.957 -65.4785 L 80.957 -15.8203 C 80.957 -14.8926 80.6641 -14.209 79.7363 -13.6719 L 61.8652 -3.125 C 61.4258 -2.88086 60.9863 -2.63672 60.5469 -2.49023 Z"/>
  </g>
  <g id="Light-S" transform="matrix(1 0 0 1 1104.23 696)">
   <path d="M 61.377 2.83203 C 62.6465 2.83203 63.916 2.49023 65.0879 1.80664 L 84.9609 -9.57031 C 87.0605 -10.791 88.0371 -12.4023 88.0371 -14.8438 L 88.0371 -67.5781 C 88.0371 -70.2148 86.5723 -71.7285 84.082 -71.7285 C 83.1543 -71.7285 82.2266 -71.3867 81.1035 -70.752 L 60.8398 -59.5703 L 40.2344 -72.168 C 39.0625 -72.9004 37.6953 -73.2422 36.4258 -73.2422 C 35.0586 -73.2422 33.6914 -72.9004 32.4707 -72.168 L 12.8418 -60.8398 C 10.6934 -59.6191 9.76562 -58.0078 9.76562 -55.5664 L 9.76562 -2.88086 C 9.76562 -0.244141 11.2305 1.26953 13.7207 1.26953 C 14.6484 1.26953 15.5762 0.976562 16.6992 0.341797 L 36.2305 -10.3027 L 57.2266 1.66016 C 58.5938 2.44141 60.0098 2.83203 61.377 2.83203 Z M 15.7715 -5.66406 C 15.4297 -5.66406 15.1855 -5.9082 15.1855 -6.29883 L 15.1855 -54.248 C 15.1855 -55.1758 15.5273 -55.8594 16.4062 -56.3965 L 32.7148 -65.9668 C 33.1543 -66.2598 33.5938 -66.4551 34.0332 -66.6992 L 34.0332 -15.625 L 16.3086 -5.85938 C 16.1133 -5.76172 15.918 -5.66406 15.7715 -5.66406 Z M 58.3008 -4.39453 C 57.8125 -4.63867 57.2754 -4.93164 56.7383 -5.17578 L 39.502 -15.0879 L 39.502 -66.0156 C 39.8926 -65.8203 40.332 -65.625 40.6738 -65.3809 L 58.3008 -54.6387 Z M 63.7207 -3.80859 L 63.7207 -54.9316 L 81.4941 -64.5996 C 81.6895 -64.6973 81.8848 -64.7949 82.0312 -64.7949 C 82.373 -64.7949 82.6172 -64.5508 82.6172 -64.1113 L 82.6172 -16.1621 C 82.6172 -15.2344 82.2754 -14.5508 81.3477 -14.0137 L 65.3809 -4.6875 C 64.8438 -4.3457 64.3066 -4.05273 63.7207 -3.80859 Z"/>
  </g>
  <g id="Regular-S" transform="matrix(1 0 0 1 1399.5 696)">
   <path d="M 63.1836 3.85742 C 64.5996 3.85742 66.0156 3.51562 67.1387 2.88086 L 87.3047 -8.44727 C 89.7461 -9.81445 90.918 -11.9141 90.918 -14.6484 L 90.918 -68.0176 C 90.918 -71.0938 89.209 -72.8027 86.1328 -72.8027 C 85.1074 -72.8027 84.0332 -72.4609 82.666 -71.7285 L 62.3535 -60.3516 L 41.3574 -73.2422 C 40.2344 -73.9258 38.8672 -74.2676 37.5 -74.2676 C 36.084 -74.2676 34.668 -73.9258 33.4961 -73.2422 L 13.3789 -61.9141 C 10.8887 -60.5469 9.76562 -58.4473 9.76562 -55.7129 L 9.76562 -2.39258 C 9.76562 0.683594 11.4746 2.39258 14.502 2.39258 C 15.5762 2.39258 16.6016 2.05078 17.9688 1.31836 L 37.3047 -9.0332 L 58.6426 2.68555 C 60.1074 3.4668 61.6699 3.85742 63.1836 3.85742 Z M 17.2852 -6.73828 C 16.9434 -6.73828 16.7969 -6.93359 16.7969 -7.27539 L 16.7969 -53.9551 C 16.7969 -54.8828 17.1875 -55.5664 18.0664 -56.1035 L 33.1055 -64.7461 C 33.5938 -65.0391 34.0332 -65.2832 34.4727 -65.5762 L 34.4727 -16.0645 L 17.8223 -6.93359 C 17.627 -6.83594 17.4316 -6.73828 17.2852 -6.73828 Z M 59.1309 -5.66406 C 58.5449 -5.95703 57.959 -6.25 57.373 -6.5918 L 41.5527 -15.2832 L 41.5527 -64.5996 C 41.9434 -64.3555 42.3828 -64.1113 42.7734 -63.8672 L 59.1309 -53.9062 Z M 66.1621 -4.78516 L 66.1621 -54.3457 L 82.8613 -63.4766 C 83.0566 -63.5742 83.252 -63.6719 83.3984 -63.6719 C 83.6914 -63.6719 83.8379 -63.4766 83.8379 -63.1348 L 83.8379 -16.4062 C 83.8379 -15.4785 83.4961 -14.7949 82.6172 -14.2578 L 68.0176 -5.85938 C 67.4316 -5.46875 66.7969 -5.12695 66.1621 -4.78516 Z"/>
  </g>
  <g id="Medium-S" transform="matrix(1 0 0 1 1695.19 696)">
   <path d="M 64.3066 4.83398 C 66.0645 4.83398 67.9688 4.19922 69.3848 3.36914 L 88.7695 -7.56836 C 91.6992 -9.17969 92.9688 -11.4258 92.9688 -14.5508 L 92.9688 -68.4082 C 92.9688 -71.9238 90.8203 -74.0234 87.2559 -74.0234 C 85.8398 -74.0234 84.6191 -73.4863 82.9102 -72.5586 L 63.0859 -61.4746 L 43.3105 -73.7305 C 41.8457 -74.707 40.1855 -75.2441 38.4766 -75.2441 C 36.6699 -75.2441 34.8633 -74.6582 33.3496 -73.7305 L 13.9648 -62.8418 C 11.0352 -61.2305 9.76562 -58.9844 9.76562 -55.8105 L 9.76562 -2.05078 C 9.76562 1.46484 11.9141 3.61328 15.4785 3.61328 C 16.8945 3.61328 18.1152 3.07617 19.8242 2.14844 L 38.916 -8.1543 L 58.9844 3.22266 C 60.5469 4.19922 62.5 4.83398 64.3066 4.83398 Z M 18.5547 -6.98242 C 18.1152 -6.98242 17.8711 -7.37305 17.8711 -7.86133 L 17.8711 -53.5156 C 17.8711 -54.6387 18.3105 -55.3223 19.3359 -55.957 L 33.4961 -64.209 C 33.9355 -64.4531 34.3262 -64.6484 34.7168 -64.8926 L 34.7168 -15.7227 L 19.2871 -7.22656 C 18.9941 -7.08008 18.75 -6.98242 18.5547 -6.98242 Z M 59.7656 -6.29883 C 59.2285 -6.5918 58.7402 -6.88477 58.1543 -7.17773 L 42.9688 -15.8691 L 42.9688 -64.0137 C 43.3594 -63.8184 43.7988 -63.5742 44.1895 -63.2812 L 59.7656 -53.6621 Z M 68.0176 -5.46875 L 68.0176 -54.6875 L 83.4473 -63.1836 C 83.7402 -63.3301 83.9844 -63.4277 84.1797 -63.4277 C 84.668 -63.4277 84.8633 -63.0859 84.8633 -62.5488 L 84.8633 -16.8945 C 84.8633 -15.7227 84.4727 -15.0879 83.3984 -14.4531 L 69.8242 -6.49414 C 69.2383 -6.10352 68.6035 -5.81055 68.0176 -5.46875 Z"/>
  </g>
  <g id="Semibold-S" transform="matrix(1 0 0 1 1991.12 696)">
   <path d="M 65.1855 5.56641 C 67.1875 5.56641 69.4824 4.73633 71.0938 3.71094 L 89.9414 -6.83594 C 93.1641 -8.69141 94.5312 -11.084 94.5312 -14.502 L 94.5312 -68.6523 C 94.5312 -72.5098 92.041 -75 88.0859 -75 C 86.4258 -75 85.0098 -74.2676 83.0566 -73.2422 L 63.6719 -62.3535 L 44.7754 -74.1211 C 43.1152 -75.293 41.1621 -76.0254 39.209 -76.0254 C 37.1094 -76.0254 35.0098 -75.1953 33.252 -74.1211 L 14.4043 -63.5254 C 11.1328 -61.7188 9.76562 -59.3262 9.76562 -55.8594 L 9.76562 -1.75781 C 9.76562 2.09961 12.2559 4.54102 16.2598 4.54102 C 17.9199 4.54102 19.2871 3.80859 21.2891 2.83203 L 40.0879 -7.4707 L 59.2285 3.61328 C 60.9375 4.6875 63.1836 5.56641 65.1855 5.56641 Z M 19.5312 -7.17773 C 18.9941 -7.17773 18.7012 -7.66602 18.7012 -8.34961 L 18.7012 -53.1738 C 18.7012 -54.4922 19.1406 -55.127 20.2637 -55.8105 L 33.7891 -63.7695 C 34.1797 -64.0137 34.5215 -64.1602 34.9121 -64.4043 L 34.9121 -15.4785 L 20.4102 -7.4707 C 20.0684 -7.27539 19.7754 -7.17773 19.5312 -7.17773 Z M 60.2539 -6.78711 C 59.7656 -7.03125 59.2773 -7.32422 58.7891 -7.61719 L 44.0918 -16.2598 L 44.0918 -63.5742 C 44.4824 -63.3301 44.9219 -63.1348 45.3125 -62.8418 L 60.2539 -53.4668 Z M 69.3848 -6.00586 L 69.3848 -54.9316 L 83.9355 -62.9395 C 84.2285 -63.1348 84.5215 -63.2324 84.7656 -63.2324 C 85.3516 -63.2324 85.6445 -62.793 85.6445 -62.1094 L 85.6445 -17.2363 C 85.6445 -15.918 85.2051 -15.2832 84.0332 -14.5996 L 71.1914 -6.98242 C 70.6055 -6.64062 70.0195 -6.34766 69.3848 -6.00586 Z"/>
  </g>
  <g id="Bold-S" transform="matrix(1 0 0 1 2286.78 696)">
   <path d="M 66.3574 6.54297 C 68.7012 6.54297 71.4355 5.41992 73.3887 4.15039 L 91.4551 -5.95703 C 95.166 -8.00781 96.6309 -10.5957 96.6309 -14.4531 L 96.6309 -68.9941 C 96.6309 -73.3398 93.7012 -76.2207 89.1602 -76.2207 C 87.1582 -76.2207 85.5469 -75.293 83.252 -74.1211 L 64.4043 -63.4766 L 46.7285 -74.6094 C 44.7754 -76.0742 42.4805 -77.002 40.1367 -77.002 C 37.6953 -77.002 35.1562 -75.9277 33.1055 -74.6094 L 14.9414 -64.502 C 11.2305 -62.4023 9.76562 -59.8633 9.76562 -55.957 L 9.76562 -1.41602 C 9.76562 2.88086 12.6953 5.81055 17.2363 5.81055 C 19.2383 5.81055 20.8496 4.83398 23.1445 3.71094 L 41.6992 -6.5918 L 59.5215 4.10156 C 61.4258 5.41992 64.0137 6.54297 66.3574 6.54297 Z M 20.8496 -7.4707 C 20.1172 -7.4707 19.7754 -8.05664 19.7754 -8.93555 L 19.7754 -52.7344 C 19.7754 -54.248 20.2148 -54.834 21.5332 -55.6641 L 34.2285 -63.1836 C 34.5215 -63.3789 34.8145 -63.5254 35.1562 -63.7207 L 35.1562 -15.1855 L 21.875 -7.76367 C 21.4844 -7.56836 21.1426 -7.4707 20.8496 -7.4707 Z M 60.8887 -7.42188 C 60.4492 -7.66602 60.0586 -7.95898 59.6191 -8.20312 L 45.5078 -16.8457 L 45.5078 -63.0371 C 45.9473 -62.793 46.3379 -62.5488 46.7773 -62.2559 L 60.8887 -53.2227 Z M 71.2402 -6.68945 L 71.2402 -55.2246 L 84.5215 -62.6465 C 84.9121 -62.8906 85.2539 -62.9883 85.5469 -62.9883 C 86.3281 -62.9883 86.6699 -62.3535 86.6699 -61.5234 L 86.6699 -17.7246 C 86.6699 -16.2109 86.1816 -15.5762 84.9121 -14.7949 L 72.998 -7.66602 C 72.4121 -7.27539 71.875 -6.98242 71.2402 -6.68945 Z"/>
  </g>
  <g id="Heavy-S" transform="matrix(1 0 0 1 2581.98 696)">
   <path d="M 68.0176 7.95898 C 70.8496 7.95898 74.3164 6.44531 76.709 4.83398 L 93.6523 -4.63867 C 97.998 -7.03125 99.6582 -9.86328 99.6582 -14.3555 L 99.6582 -69.5312 C 99.6582 -74.5605 96.0938 -78.0762 90.7715 -78.0762 C 88.2324 -78.0762 86.3281 -76.7578 83.5449 -75.3906 L 65.4785 -65.1367 L 49.5605 -75.293 C 47.168 -77.1973 44.3848 -78.418 41.5527 -78.418 C 38.5742 -78.418 35.4492 -77.002 32.8613 -75.293 L 15.7715 -65.8203 C 11.4258 -63.4277 9.76562 -60.5957 9.76562 -56.1035 L 9.76562 -0.927734 C 9.76562 4.10156 13.3789 7.61719 18.6523 7.61719 C 21.1914 7.61719 23.0957 6.29883 25.8789 4.93164 L 44.043 -5.32227 L 60.0098 4.83398 C 62.1094 6.44531 65.2832 7.95898 68.0176 7.95898 Z M 22.7539 -7.86133 C 21.7773 -7.86133 21.2891 -8.64258 21.2891 -9.76562 L 21.2891 -52.0508 C 21.2891 -53.9062 21.8262 -54.4922 23.3398 -55.4199 L 34.8145 -62.3535 C 35.0586 -62.5 35.2539 -62.5977 35.498 -62.7441 L 35.498 -14.6973 L 24.0723 -8.20312 C 23.5352 -7.95898 23.0957 -7.86133 22.7539 -7.86133 Z M 73.9258 -7.66602 L 73.9258 -55.7129 L 85.4004 -62.2559 C 85.9375 -62.5 86.3281 -62.5977 86.6699 -62.5977 C 87.6953 -62.5977 88.1348 -61.8164 88.1348 -60.6934 L 88.1348 -18.4082 C 88.1348 -16.5527 87.5977 -15.9668 86.084 -15.0391 L 75.6348 -8.64258 C 75.0488 -8.25195 74.5117 -8.00781 73.9258 -7.66602 Z M 61.8164 -8.39844 C 61.4746 -8.59375 61.1328 -8.83789 60.791 -9.0332 L 47.6074 -17.6758 L 47.6074 -62.1582 C 48.0469 -61.9141 48.4375 -61.6699 48.877 -61.377 L 61.8164 -52.832 Z"/>
  </g>
  <g id="Black-S" transform="matrix(1 0 0 1 2877.32 696)">
   <path d="M 69.5312 9.22852 C 72.8027 9.22852 76.9043 7.32422 79.6387 5.46875 L 95.6055 -3.4668 C 100.537 -6.15234 102.393 -9.27734 102.393 -14.3066 L 102.393 -69.9707 C 102.393 -75.5859 98.1934 -79.6875 92.1875 -79.6875 C 89.209 -79.6875 87.0605 -78.0762 83.8379 -76.5625 L 66.4551 -66.6016 L 52.0996 -75.9277 C 49.2676 -78.1738 46.0938 -79.6875 42.8223 -79.6875 C 39.3555 -79.6875 35.6934 -77.9297 32.7148 -75.9277 L 16.5527 -67.041 C 11.5723 -64.3066 9.76562 -61.2305 9.76562 -56.2012 L 9.76562 -0.488281 C 9.76562 5.12695 13.9648 9.17969 19.9707 9.17969 C 22.9492 9.17969 25.0977 7.61719 28.3203 6.10352 L 46.0938 -4.15039 L 60.4492 5.51758 C 62.7441 7.32422 66.4062 9.22852 69.5312 9.22852 Z M 76.3184 -8.54492 L 76.3184 -56.1035 L 86.1816 -61.8652 C 86.8164 -62.207 87.3047 -62.3047 87.6953 -62.3047 C 88.916 -62.3047 89.4531 -61.2793 89.4531 -59.9609 L 89.4531 -18.9941 C 89.4531 -16.8945 88.8672 -16.3574 87.1582 -15.2832 L 77.9785 -9.47266 C 77.4414 -9.08203 76.9043 -8.88672 76.3184 -8.54492 Z M 24.4629 -8.20312 C 23.291 -8.20312 22.7051 -9.17969 22.7051 -10.5469 L 22.7051 -51.4648 C 22.7051 -53.5645 23.291 -54.1504 24.9512 -55.1758 L 35.3516 -61.6211 C 35.498 -61.7188 35.6445 -61.7676 35.8398 -61.8652 L 35.8398 -14.3066 L 25.9766 -8.64258 C 25.3418 -8.30078 24.8535 -8.20312 24.4629 -8.20312 Z M 62.6465 -9.22852 C 62.3535 -9.375 62.1094 -9.61914 61.8164 -9.76562 L 49.5117 -18.4082 L 49.5117 -61.4258 C 49.9512 -61.1816 50.3418 -60.9375 50.7812 -60.6445 L 62.6465 -52.4902 Z"/>
  </g>
  <g id="Ultralight-M" transform="matrix(1 0 0 1 501.337 1126)">
   <path d="M 73.2422 10.3516 C 74.4629 10.3516 75.7812 9.91211 77.3438 8.98438 L 101.953 -5.66406 C 103.613 -6.64062 104.297 -7.4707 104.297 -9.7168 L 104.297 -75.2441 C 104.297 -77.4414 103.125 -78.7109 101.416 -78.7109 C 100.635 -78.7109 99.8535 -78.3691 99.0723 -77.9785 L 73.5352 -64.0625 L 48.2422 -79.3945 C 46.5332 -80.3711 44.9219 -80.8594 43.3594 -80.8594 C 41.748 -80.8594 40.1367 -80.3711 38.5254 -79.3945 L 14.7949 -64.8438 C 13.1348 -63.8672 12.4512 -63.0371 12.4512 -60.791 L 12.4512 4.73633 C 12.4512 6.93359 13.623 8.25195 15.332 8.25195 C 16.0645 8.25195 16.8945 7.86133 17.6758 7.42188 L 43.2617 -7.03125 L 69.1406 8.98438 C 70.6543 9.91211 71.9238 10.3516 73.2422 10.3516 Z M 72.1191 7.61719 C 71.6309 7.51953 71.0449 7.27539 70.6543 7.03125 L 44.6289 -9.0332 L 44.6289 -78.5156 C 45.1172 -78.418 45.7031 -78.1738 46.0938 -77.9297 L 72.1191 -62.0605 Z M 15.8691 5.56641 C 15.2832 5.56641 14.8438 5.12695 14.8438 4.44336 L 14.8438 -60.4004 C 14.8438 -61.5723 15.1855 -62.4023 16.3574 -63.0859 L 40.7227 -77.8809 C 41.2109 -78.1738 41.748 -78.418 42.2363 -78.5156 L 42.2363 -9.08203 L 16.6016 5.37109 C 16.3574 5.51758 16.1133 5.56641 15.8691 5.56641 Z M 74.5117 7.66602 L 74.5117 -62.0117 L 100.146 -75.9277 C 100.391 -76.0254 100.635 -76.0742 100.879 -76.0742 C 101.465 -76.0742 101.904 -75.6348 101.904 -74.9512 L 101.904 -10.1074 C 101.904 -8.93555 101.562 -8.1543 100.391 -7.4707 L 75.9766 7.08008 C 75.4883 7.32422 75 7.56836 74.5117 7.66602 Z"/>
  </g>
  <g id="Thin-M" transform="matrix(1 0 0 1 796.95 1126)">
   <path d="M 74.6094 11.1816 C 75.9766 11.1816 77.3438 10.7422 78.9062 9.81445 L 103.711 -4.78516 C 105.664 -5.9082 106.494 -7.12891 106.494 -9.57031 L 106.494 -75.5859 C 106.494 -78.125 105.127 -79.541 102.979 -79.541 C 102.148 -79.541 101.27 -79.1992 100.293 -78.6621 L 74.6582 -64.6973 L 49.0723 -80.2246 C 47.4609 -81.2012 45.8008 -81.6895 44.1895 -81.6895 C 42.5781 -81.6895 40.918 -81.2012 39.3066 -80.2246 L 15.2344 -65.6738 C 13.2812 -64.5508 12.4512 -63.3789 12.4512 -60.9375 L 12.4512 5.07812 C 12.4512 7.61719 13.8184 9.08203 15.918 9.08203 C 16.7969 9.08203 17.6758 8.69141 18.6523 8.1543 L 44.0918 -6.05469 L 70.2148 9.76562 C 71.7773 10.7422 73.1934 11.1816 74.6094 11.1816 Z M 17.041 4.73633 C 16.5039 4.73633 16.1133 4.3457 16.1133 3.71094 L 16.1133 -60.1562 C 16.1133 -61.3281 16.4551 -62.1582 17.627 -62.8418 L 41.0156 -76.9531 C 41.5527 -77.2461 42.041 -77.4902 42.5781 -77.6855 L 42.5781 -9.375 L 17.7734 4.54102 C 17.5293 4.6875 17.2363 4.73633 17.041 4.73633 Z M 72.7539 6.68945 C 72.2168 6.49414 71.6309 6.25 71.1426 5.95703 L 46.1914 -9.17969 L 46.1914 -77.4414 C 46.6797 -77.2949 47.2656 -77.0508 47.7051 -76.7578 L 72.7539 -61.4746 Z M 76.3672 6.93359 L 76.3672 -61.5723 L 101.172 -75.0488 C 101.416 -75.1465 101.709 -75.2441 101.904 -75.2441 C 102.441 -75.2441 102.832 -74.8535 102.832 -74.1699 L 102.832 -10.3516 C 102.832 -9.13086 102.49 -8.30078 101.318 -7.61719 L 78.0273 6.15234 C 77.4902 6.44531 76.9043 6.73828 76.3672 6.93359 Z"/>
  </g>
  <g id="Light-M" transform="matrix(1 0 0 1 1091.51 1126)">
   <path d="M 77.3438 12.7441 C 78.9062 12.7441 80.4688 12.3047 81.9336 11.4258 L 107.178 -3.125 C 109.668 -4.54102 110.791 -6.34766 110.791 -9.27734 L 110.791 -76.2695 C 110.791 -79.3945 109.033 -81.2012 106.152 -81.2012 C 105.078 -81.2012 103.955 -80.8105 102.637 -80.0781 L 76.8555 -65.8691 L 50.7324 -81.7871 C 49.2188 -82.7148 47.5098 -83.2031 45.8496 -83.2031 C 44.1406 -83.2031 42.4316 -82.7148 40.8691 -81.7871 L 16.0645 -67.334 C 13.5742 -65.918 12.4512 -64.0625 12.4512 -61.1328 L 12.4512 5.81055 C 12.4512 8.98438 14.209 10.7422 17.0898 10.7422 C 18.1641 10.7422 19.2871 10.3516 20.6055 9.61914 L 45.6543 -4.15039 L 72.3145 11.3281 C 73.9746 12.2559 75.6836 12.7441 77.3438 12.7441 Z M 19.2871 3.125 C 18.7988 3.125 18.5059 2.7832 18.5059 2.19727 L 18.5059 -59.7168 C 18.5059 -60.8887 18.8965 -61.7188 20.0684 -62.4023 L 41.5527 -75.1465 C 42.1387 -75.4883 42.6758 -75.7324 43.2129 -76.0254 L 43.2129 -10.0098 L 19.9707 2.88086 C 19.7266 3.02734 19.4824 3.125 19.2871 3.125 Z M 73.9746 4.83398 C 73.3398 4.54102 72.7051 4.19922 72.0703 3.85742 L 49.2676 -9.42383 L 49.2676 -75.3418 C 49.7559 -75.0977 50.3418 -74.8047 50.7812 -74.5605 L 73.9746 -60.4004 Z M 80.0293 5.41992 L 80.0293 -60.6934 L 103.223 -73.3398 C 103.516 -73.4863 103.76 -73.584 103.955 -73.584 C 104.443 -73.584 104.736 -73.2422 104.736 -72.6562 L 104.736 -10.7422 C 104.736 -9.52148 104.346 -8.69141 103.174 -8.00781 L 81.9824 4.39453 C 81.3477 4.78516 80.6641 5.12695 80.0293 5.41992 Z"/>
  </g>
  <g id="Regular-M" transform="matrix(1 0 0 1 1386.61 1126)">
   <path d="M 79.3457 13.916 C 81.1035 13.916 82.8125 13.4766 84.2285 12.6465 L 109.814 -1.85547 C 112.695 -3.4668 114.014 -5.81055 114.014 -9.08203 L 114.014 -76.8066 C 114.014 -80.4199 112.012 -82.4219 108.496 -82.4219 C 107.275 -82.4219 106.006 -82.0312 104.443 -81.1523 L 78.5156 -66.748 L 52.002 -83.0078 C 50.5371 -83.8867 48.8281 -84.375 47.1191 -84.375 C 45.3125 -84.375 43.5547 -83.8867 42.041 -83.0078 L 16.6992 -68.5547 C 13.7695 -66.8945 12.4512 -64.5508 12.4512 -61.2793 L 12.4512 6.34766 C 12.4512 9.96094 14.502 12.0117 17.9688 12.0117 C 19.2383 12.0117 20.459 11.5723 22.0703 10.6934 L 46.875 -2.68555 L 73.877 12.4512 C 75.6836 13.4277 77.5391 13.916 79.3457 13.916 Z M 20.9961 1.9043 C 20.5566 1.9043 20.3125 1.61133 20.3125 1.12305 L 20.3125 -59.375 C 20.3125 -60.5469 20.8008 -61.377 21.9238 -62.0605 L 41.9922 -73.7793 C 42.5781 -74.1211 43.1152 -74.4141 43.7012 -74.7559 L 43.7012 -10.4492 L 21.6797 1.66016 C 21.4355 1.75781 21.1914 1.9043 20.9961 1.9043 Z M 74.9023 3.41797 C 74.2188 3.02734 73.4863 2.68555 72.7539 2.29492 L 51.5625 -9.66797 L 51.5625 -73.7305 C 52.0996 -73.4375 52.6367 -73.1445 53.125 -72.8516 L 74.9023 -59.5703 Z M 82.7637 4.29688 L 82.7637 -60.0586 L 104.785 -72.0703 C 105.078 -72.2168 105.322 -72.3145 105.518 -72.3145 C 105.908 -72.3145 106.152 -72.0215 106.152 -71.5332 L 106.152 -11.0352 C 106.152 -9.81445 105.713 -8.98438 104.59 -8.30078 L 85.0098 3.07617 C 84.2285 3.51562 83.4961 3.95508 82.7637 4.29688 Z"/>
  </g>
  <g id="Medium-M" transform="matrix(1 0 0 1 1682.05 1126)">
   <path d="M 80.7617 15.0879 C 82.8613 15.0879 85.0586 14.3555 86.8164 13.2812 L 111.621 -0.78125 C 115.039 -2.68555 116.504 -5.27344 116.504 -8.98438 L 116.504 -77.1973 C 116.504 -81.3477 114.014 -83.8379 109.912 -83.8379 C 108.301 -83.8379 106.836 -83.2031 104.834 -82.1777 L 79.4922 -68.0176 L 54.1504 -83.6426 C 52.3438 -84.8145 50.293 -85.498 48.2422 -85.498 C 46.0938 -85.498 43.8965 -84.7656 42.041 -83.6426 L 17.334 -69.6289 C 13.916 -67.7246 12.4512 -65.1367 12.4512 -61.4258 L 12.4512 6.78711 C 12.4512 10.9375 14.9902 13.4277 19.0918 13.4277 C 20.7031 13.4277 22.168 12.7441 24.1211 11.7188 L 48.6328 -1.61133 L 74.4141 13.1348 C 76.3672 14.3066 78.6621 15.0879 80.7617 15.0879 Z M 22.5098 1.46484 C 21.9238 1.46484 21.6309 1.02539 21.6309 0.390625 L 21.6309 -58.8379 C 21.6309 -60.2539 22.1191 -61.084 23.3887 -61.8652 L 42.4316 -73.0469 C 42.9688 -73.3398 43.457 -73.6328 44.043 -73.9258 L 44.043 -10.2051 L 23.3887 1.17188 C 23.0469 1.36719 22.7539 1.46484 22.5098 1.46484 Z M 75.6836 2.58789 C 75 2.24609 74.3652 1.9043 73.6816 1.51367 L 53.3203 -10.2539 L 53.3203 -72.9492 C 53.8574 -72.6562 54.3945 -72.3633 54.8828 -72.0703 L 75.6836 -59.2285 Z M 84.9609 3.4668 L 84.9609 -60.3027 L 105.615 -71.6309 C 105.908 -71.7773 106.25 -71.9238 106.494 -71.9238 C 107.08 -71.9238 107.373 -71.4844 107.373 -70.8008 L 107.373 -11.5234 C 107.373 -10.1562 106.836 -9.27734 105.566 -8.49609 L 87.1582 2.24609 C 86.4258 2.73438 85.6934 3.07617 84.9609 3.4668 Z"/>
  </g>
  <g id="Semibold-M" transform="matrix(1 0 0 1 1977.81 1126)">
   <path d="M 81.8359 15.918 C 84.2285 15.918 86.8164 14.9902 88.8184 13.7695 L 113.037 0.0488281 C 116.846 -2.05078 118.457 -4.83398 118.457 -8.93555 L 118.457 -77.5391 C 118.457 -82.0801 115.576 -84.9121 110.986 -84.9121 C 109.082 -84.9121 107.422 -84.082 105.176 -82.959 L 80.2246 -68.9941 L 55.7617 -84.1309 C 53.7598 -85.5469 51.416 -86.377 49.0723 -86.377 C 46.6309 -86.377 44.1406 -85.4492 42.041 -84.1309 L 17.8223 -70.459 C 14.0625 -68.3594 12.4512 -65.5762 12.4512 -61.4746 L 12.4512 7.08008 C 12.4512 11.6211 15.332 14.502 19.9219 14.502 C 21.8262 14.502 23.4863 13.6719 25.7324 12.5 L 50 -0.78125 L 74.8047 13.623 C 76.8555 14.9414 79.4922 15.918 81.8359 15.918 Z M 23.6816 1.17188 C 22.998 1.17188 22.6074 0.634766 22.6074 -0.195312 L 22.6074 -58.4473 C 22.6074 -60.0586 23.1445 -60.8398 24.5605 -61.7188 L 42.8223 -72.4609 C 43.3105 -72.7539 43.75 -72.998 44.2383 -73.291 L 44.2383 -9.96094 L 24.707 0.830078 C 24.3164 1.02539 23.9746 1.17188 23.6816 1.17188 Z M 76.2207 1.95312 C 75.6348 1.61133 75 1.26953 74.3652 0.927734 L 54.6387 -10.6934 L 54.6387 -72.3633 C 55.1758 -72.0703 55.7129 -71.7773 56.25 -71.4355 L 76.2207 -58.9355 Z M 86.6699 2.83203 L 86.6699 -60.498 L 106.201 -71.2891 C 106.592 -71.4844 106.934 -71.582 107.227 -71.582 C 107.91 -71.582 108.252 -71.0449 108.252 -70.2637 L 108.252 -11.9141 C 108.252 -10.3516 107.764 -9.52148 106.348 -8.69141 L 88.8672 1.61133 C 88.1348 2.09961 87.4023 2.44141 86.6699 2.83203 Z"/>
  </g>
  <g id="Bold-M" transform="matrix(1 0 0 1 2273.25 1126)">
   <path d="M 83.3008 17.0898 C 86.0352 17.0898 89.1602 15.8203 91.4062 14.3555 L 114.941 1.12305 C 119.189 -1.26953 120.947 -4.24805 120.947 -8.83789 L 120.947 -77.9297 C 120.947 -83.0078 117.578 -86.3281 112.354 -86.3281 C 110.107 -86.3281 108.252 -85.3027 105.615 -83.9844 L 81.2012 -70.2637 L 57.9102 -84.7656 C 55.6152 -86.4746 52.9297 -87.5 50.2441 -87.5 C 47.3633 -87.5 44.4336 -86.3281 41.9922 -84.7656 L 18.5059 -71.582 C 14.209 -69.1895 12.4512 -66.1621 12.4512 -61.5723 L 12.4512 7.51953 C 12.4512 12.5977 15.8203 15.918 21.0449 15.918 C 23.3398 15.918 25.1953 14.8438 27.832 13.5254 L 51.7578 0.292969 L 75.3418 14.2578 C 77.5391 15.8203 80.6152 17.0898 83.3008 17.0898 Z M 25.2441 0.732422 C 24.3652 0.732422 23.9258 0.0488281 23.9258 -0.927734 L 23.9258 -57.959 C 23.9258 -59.7656 24.5117 -60.5469 26.0742 -61.5234 L 43.2617 -71.7285 C 43.7012 -71.9727 44.0918 -72.168 44.5801 -72.4609 L 44.5801 -9.7168 L 26.416 0.390625 C 25.9277 0.634766 25.5371 0.732422 25.2441 0.732422 Z M 77.002 1.12305 C 76.4648 0.78125 75.8789 0.488281 75.293 0.146484 L 56.4453 -11.3281 L 56.4453 -71.582 C 56.9336 -71.2891 57.4707 -70.9473 58.0078 -70.6055 L 77.002 -58.5938 Z M 88.8672 2.00195 L 88.8672 -60.7422 L 106.982 -70.8008 C 107.471 -71.0938 107.91 -71.1914 108.203 -71.1914 C 109.082 -71.1914 109.473 -70.5078 109.473 -69.5312 L 109.473 -12.4512 C 109.473 -10.6445 108.936 -9.86328 107.373 -8.93555 L 91.0645 0.78125 C 90.332 1.26953 89.5996 1.61133 88.8672 2.00195 Z"/>
  </g>
  <g id="Heavy-M" transform="matrix(1 0 0 1 2568.13 1126)">
   <path d="M 85.3516 18.75 C 88.623 18.75 92.4805 17.0898 95.2148 15.2832 L 117.627 2.73438 C 122.656 -0.0976562 124.609 -3.4668 124.609 -8.69141 L 124.609 -78.5645 C 124.609 -84.4238 120.557 -88.4277 114.404 -88.4277 C 111.572 -88.4277 109.375 -87.0117 106.25 -85.4492 L 82.6172 -72.0703 L 61.0352 -85.6934 C 58.252 -87.793 55.127 -89.1602 51.8555 -89.1602 C 48.4863 -89.1602 44.9219 -87.5977 41.9922 -85.6934 L 19.4824 -73.1445 C 14.4043 -70.3613 12.4512 -66.9922 12.4512 -61.7676 L 12.4512 8.10547 C 12.4512 13.9648 16.5527 17.9688 22.6562 17.9688 C 25.5371 17.9688 27.6855 16.5527 30.8594 14.9902 L 54.3457 1.85547 L 76.0742 15.2344 C 78.5645 17.041 82.1777 18.75 85.3516 18.75 Z M 27.4414 0.146484 C 26.416 0.146484 25.8301 -0.732422 25.8301 -1.95312 L 25.8301 -57.2266 C 25.8301 -59.3262 26.4648 -60.1074 28.2715 -61.1816 L 43.9453 -70.6055 C 44.3359 -70.8496 44.6289 -70.9961 45.0195 -71.2402 L 45.0195 -9.32617 L 28.9062 -0.292969 C 28.3203 0.0488281 27.832 0.146484 27.4414 0.146484 Z M 92.0898 0.830078 L 92.0898 -61.084 L 108.154 -70.166 C 108.74 -70.459 109.229 -70.6055 109.619 -70.6055 C 110.742 -70.6055 111.23 -69.7266 111.23 -68.457 L 111.23 -13.2324 C 111.23 -11.084 110.596 -10.3027 108.838 -9.22852 L 94.2871 -0.439453 C 93.5547 0.0488281 92.8223 0.390625 92.0898 0.830078 Z M 78.125 -0.0976562 C 77.6367 -0.390625 77.1484 -0.683594 76.6113 -0.976562 L 58.9844 -12.1582 L 58.9844 -70.4102 C 59.5215 -70.1172 60.0586 -69.8242 60.5957 -69.4336 L 78.125 -58.0566 Z"/>
  </g>
  <g id="Black-M" transform="matrix(1 0 0 1 2863.21 1126)">
   <path d="M 87.207 20.2148 C 90.918 20.2148 95.5078 18.1641 98.584 16.1133 L 120.02 4.10156 C 125.732 0.976562 127.93 -2.73438 127.93 -8.59375 L 127.93 -79.1016 C 127.93 -85.6445 123.193 -90.2832 116.26 -90.2832 C 112.891 -90.2832 110.449 -88.5742 106.787 -86.8164 L 83.8379 -73.7305 L 63.8184 -86.5723 C 60.6934 -89.0137 57.0801 -90.6738 53.3691 -90.6738 C 49.4141 -90.6738 45.3125 -88.7695 41.9922 -86.5723 L 20.3125 -74.5605 C 14.5996 -71.4355 12.4512 -67.7246 12.4512 -61.8652 L 12.4512 8.64258 C 12.4512 15.1855 17.1875 19.8242 24.1211 19.8242 C 27.4902 19.8242 29.9316 18.1152 33.5938 16.3086 L 56.6895 3.22266 L 76.7578 16.1133 C 79.4434 18.1641 83.6426 20.2148 87.207 20.2148 Z M 29.4434 -0.390625 C 28.1738 -0.390625 27.5391 -1.46484 27.5391 -2.92969 L 27.5391 -56.5918 C 27.5391 -58.9844 28.2715 -59.7168 30.2246 -60.9375 L 44.5312 -69.6777 C 44.873 -69.8242 45.1172 -69.9707 45.4102 -70.1172 L 45.4102 -8.98438 L 31.1523 -0.878906 C 30.4688 -0.537109 29.8828 -0.390625 29.4434 -0.390625 Z M 94.9707 -0.244141 L 94.9707 -61.4258 L 109.229 -69.5801 C 109.912 -69.9219 110.449 -70.0684 110.889 -70.0684 C 112.256 -70.0684 112.793 -68.9941 112.793 -67.5293 L 112.793 -13.8672 C 112.793 -11.4746 112.109 -10.7422 110.156 -9.52148 L 97.168 -1.51367 C 96.3867 -1.02539 95.7031 -0.683594 94.9707 -0.244141 Z M 79.1016 -1.17188 C 78.6621 -1.41602 78.2715 -1.75781 77.832 -2.00195 L 61.2793 -12.9395 L 61.2793 -69.3848 C 61.8164 -69.0918 62.3047 -68.7988 62.8906 -68.4082 L 79.1016 -57.6172 Z"/>
  </g>
  <g id="Ultralight-L" transform="matrix(1 0 0 1 484.858 1556)">
   <path d="M 93.8965 23.2422 C 95.459 23.2422 97.1191 22.6562 99.1211 21.4844 L 130.762 2.53906 C 132.812 1.31836 133.594 0.390625 133.594 -2.39258 L 133.594 -86.7188 C 133.594 -89.4531 132.178 -90.9668 130.127 -90.9668 C 129.248 -90.9668 128.223 -90.5762 127.295 -90.0391 L 94.3848 -72.168 L 61.8652 -91.8457 C 59.668 -93.1641 57.5684 -93.7988 55.6152 -93.7988 C 53.5156 -93.7988 51.4648 -93.1641 49.3652 -91.8457 L 18.8965 -73.0957 C 16.8945 -71.875 16.0645 -70.9473 16.0645 -68.1641 L 16.0645 16.1621 C 16.0645 18.8965 17.5293 20.5078 19.5312 20.5078 C 20.459 20.5078 21.4355 20.0195 22.4121 19.4824 L 55.4688 0.732422 L 88.7695 21.4844 C 90.6738 22.7051 92.2852 23.2422 93.8965 23.2422 Z M 92.7734 20.5078 C 92.1875 20.3613 91.4551 20.0684 90.918 19.7266 L 56.8848 -1.31836 L 56.8848 -91.6016 C 57.5195 -91.4551 58.252 -91.1133 58.8379 -90.8203 L 92.7734 -70.0684 Z M 19.9707 17.7734 C 19.2383 17.7734 18.6523 17.1875 18.6523 16.2598 L 18.6523 -67.8223 C 18.6523 -69.3359 19.043 -70.3613 20.5566 -71.2402 L 52.4414 -90.6738 C 53.0762 -91.0156 53.7109 -91.3086 54.3457 -91.4551 L 54.3457 -1.31836 L 20.9473 17.5293 C 20.6055 17.6758 20.3125 17.7734 19.9707 17.7734 Z M 95.3613 20.459 L 95.3613 -70.0195 L 128.76 -88.0859 C 129.053 -88.2324 129.395 -88.3301 129.736 -88.3301 C 130.469 -88.3301 131.055 -87.7441 131.055 -86.8164 L 131.055 -2.73438 C 131.055 -1.2207 130.664 -0.195312 129.15 0.683594 L 97.168 19.7266 C 96.582 20.0195 95.9473 20.3613 95.3613 20.459 Z"/>
  </g>
  <g id="Thin-L" transform="matrix(1 0 0 1 780.348 1556)">
   <path d="M 95.459 24.1211 C 97.1191 24.1211 98.877 23.584 100.879 22.4121 L 132.764 3.51562 C 135.107 2.14844 136.035 0.830078 136.035 -2.19727 L 136.035 -87.1094 C 136.035 -90.1855 134.424 -91.8945 131.934 -91.8945 C 130.908 -91.8945 129.785 -91.4551 128.662 -90.8691 L 95.6543 -72.8516 L 62.8418 -92.7734 C 60.6934 -94.043 58.5449 -94.6777 56.543 -94.6777 C 54.4434 -94.6777 52.2949 -94.043 50.2441 -92.7734 L 19.3848 -74.0234 C 17.041 -72.6562 16.0645 -71.3379 16.0645 -68.3105 L 16.0645 16.5527 C 16.0645 19.6289 17.7246 21.4355 20.2148 21.4355 C 21.2402 21.4355 22.3633 20.9473 23.4863 20.3125 L 56.3477 1.80664 L 89.9414 22.3633 C 91.9434 23.584 93.7012 24.1211 95.459 24.1211 Z M 21.2402 16.8457 C 20.5566 16.8457 20.0195 16.3086 20.0195 15.4297 L 20.0195 -67.5293 C 20.0195 -69.0918 20.459 -70.1172 21.9727 -70.9961 L 52.7344 -89.6484 C 53.418 -89.9902 54.0527 -90.332 54.7363 -90.5273 L 54.7363 -1.66016 L 22.2168 16.6016 C 21.875 16.748 21.582 16.8457 21.2402 16.8457 Z M 93.5059 19.4336 C 92.8223 19.2383 92.0898 18.8965 91.4551 18.5547 L 58.6426 -1.51367 L 58.6426 -90.3809 C 59.2773 -90.1855 60.0098 -89.8438 60.5957 -89.5508 L 93.5059 -69.4336 Z M 97.4121 19.6289 L 97.4121 -69.5312 L 129.932 -87.1094 C 130.225 -87.3047 130.566 -87.3535 130.859 -87.3535 C 131.592 -87.3535 132.129 -86.8164 132.129 -85.9863 L 132.129 -2.97852 C 132.129 -1.46484 131.689 -0.390625 130.176 0.488281 L 99.4629 18.75 C 98.7793 19.0918 98.0957 19.4336 97.4121 19.6289 Z"/>
  </g>
  <g id="Light-L" transform="matrix(1 0 0 1 1074.67 1556)">
   <path d="M 98.4375 25.9277 C 100.391 25.9277 102.295 25.3418 104.248 24.2188 L 136.621 5.37109 C 139.551 3.71094 140.82 1.66016 140.82 -1.9043 L 140.82 -87.8418 C 140.82 -91.6016 138.77 -93.7012 135.449 -93.7012 C 134.131 -93.7012 132.812 -93.2617 131.299 -92.4316 L 98.0957 -74.1699 L 64.6973 -94.5312 C 62.6465 -95.752 60.498 -96.3867 58.3496 -96.3867 C 56.2012 -96.3867 54.0039 -95.752 51.9531 -94.5312 L 20.3125 -75.8301 C 17.3828 -74.1699 16.0645 -72.1191 16.0645 -68.5547 L 16.0645 17.3828 C 16.0645 21.1426 18.1152 23.291 21.4844 23.291 C 22.7539 23.291 24.1211 22.8027 25.6348 21.9238 L 58.1543 3.95508 L 92.2852 24.0723 C 94.3848 25.293 96.4355 25.9277 98.4375 25.9277 Z M 23.7793 15.0391 C 23.1445 15.0391 22.7051 14.5508 22.7051 13.8184 L 22.7051 -67.041 C 22.7051 -68.5547 23.1934 -69.6289 24.707 -70.5078 L 53.3691 -87.6465 C 54.0527 -88.0371 54.7363 -88.3789 55.4688 -88.6719 L 55.4688 -2.34375 L 24.707 14.7461 C 24.3652 14.9414 24.0723 15.0391 23.7793 15.0391 Z M 94.873 17.334 C 94.0918 17.041 93.2617 16.6504 92.5293 16.2598 L 62.0605 -1.80664 L 62.0605 -87.9883 C 62.6953 -87.7441 63.4277 -87.4023 64.0137 -87.0605 L 94.873 -68.2129 Z M 101.465 17.9688 L 101.465 -68.5547 L 132.227 -85.2539 C 132.52 -85.4004 132.861 -85.498 133.154 -85.498 C 133.789 -85.498 134.229 -85.0586 134.229 -84.2773 L 134.229 -3.41797 C 134.229 -1.9043 133.74 -0.830078 132.227 0.0488281 L 103.857 16.7969 C 103.076 17.2363 102.295 17.627 101.465 17.9688 Z"/>
  </g>
  <g id="Regular-L" transform="matrix(1 0 0 1 1369.57 1556)">
   <path d="M 100.732 27.2461 C 102.832 27.2461 104.932 26.6602 106.836 25.5859 L 139.551 6.83594 C 142.92 4.88281 144.482 2.29492 144.482 -1.66016 L 144.482 -88.4277 C 144.482 -92.7246 142.09 -95.1172 138.086 -95.1172 C 136.621 -95.1172 135.107 -94.6289 133.301 -93.6035 L 99.9512 -75.1953 L 66.0645 -95.8984 C 64.1113 -97.0703 61.9141 -97.6562 59.7656 -97.6562 C 57.5195 -97.6562 55.2734 -97.0703 53.2715 -95.8984 L 20.9961 -77.1973 C 17.627 -75.293 16.0645 -72.6562 16.0645 -68.75 L 16.0645 17.9688 C 16.0645 22.2656 18.457 24.707 22.4609 24.707 C 23.9258 24.707 25.4395 24.1699 27.2461 23.1445 L 59.5215 5.56641 L 94.043 25.3906 C 96.2891 26.6113 98.5352 27.2461 100.732 27.2461 Z M 25.6836 13.6719 C 25.0977 13.6719 24.7559 13.2324 24.7559 12.5488 L 24.7559 -66.6504 C 24.7559 -68.1641 25.293 -69.2871 26.7578 -70.166 L 53.8086 -86.084 C 54.5898 -86.5234 55.2734 -86.8652 56.0059 -87.2559 L 56.0059 -2.88086 L 26.6113 13.3789 C 26.2695 13.5254 25.9277 13.6719 25.6836 13.6719 Z M 95.8984 15.7715 C 95.0684 15.3809 94.1895 14.9414 93.3105 14.502 L 64.6484 -2.05078 L 64.6484 -86.2305 C 65.2832 -85.8887 66.0156 -85.5469 66.6504 -85.1562 L 95.8984 -67.2852 Z M 104.541 16.6992 L 104.541 -67.7734 L 133.936 -83.8379 C 134.277 -83.9844 134.619 -84.1309 134.863 -84.1309 C 135.449 -84.1309 135.84 -83.6914 135.84 -83.0078 L 135.84 -3.75977 C 135.84 -2.24609 135.254 -1.12305 133.789 -0.244141 L 107.227 15.2832 C 106.348 15.8203 105.42 16.3086 104.541 16.6992 Z"/>
  </g>
  <g id="Medium-L" transform="matrix(1 0 0 1 1664.82 1556)">
   <path d="M 102.441 28.5156 C 104.883 28.5156 107.471 27.6855 109.668 26.3672 L 141.748 8.05664 C 145.703 5.81055 147.412 2.88086 147.412 -1.51367 L 147.412 -88.916 C 147.412 -93.7988 144.531 -96.6309 139.844 -96.6309 C 137.988 -96.6309 136.279 -95.9473 134.033 -94.7266 L 101.172 -76.5137 L 68.2617 -96.7285 C 66.0645 -98.1445 63.5254 -98.9258 61.0352 -98.9258 C 58.4473 -98.9258 55.8105 -98.0957 53.5156 -96.7285 L 21.7285 -78.4668 C 17.7734 -76.2207 16.0645 -73.291 16.0645 -68.8477 L 16.0645 18.457 C 16.0645 23.3398 18.9453 26.2207 23.6816 26.2207 C 25.4883 26.2207 27.2461 25.4883 29.4434 24.3164 L 61.377 6.83594 L 94.8242 26.2207 C 97.2168 27.6367 99.9023 28.5156 102.441 28.5156 Z M 27.4414 13.0371 C 26.709 13.0371 26.3184 12.5 26.3184 11.6699 L 26.3184 -66.1133 C 26.3184 -67.8223 26.9043 -68.9453 28.5156 -69.873 L 54.3457 -85.1562 C 55.0293 -85.5469 55.6641 -85.8887 56.3965 -86.2305 L 56.3965 -2.73438 L 28.5156 12.6953 C 28.125 12.8906 27.7344 13.0371 27.4414 13.0371 Z M 96.7773 14.7461 C 95.9473 14.3555 95.1172 13.916 94.2871 13.4766 L 66.6992 -2.63672 L 66.6992 -85.1562 C 67.3828 -84.8633 68.0664 -84.4727 68.7012 -84.082 L 96.7773 -66.7969 Z M 107.129 15.7227 L 107.129 -67.8711 L 135.01 -83.1543 C 135.4 -83.3496 135.791 -83.4961 136.084 -83.4961 C 136.816 -83.4961 137.207 -82.959 137.207 -82.1289 L 137.207 -4.29688 C 137.207 -2.53906 136.621 -1.46484 135.01 -0.488281 L 109.814 14.2578 C 108.936 14.8438 108.008 15.2832 107.129 15.7227 Z"/>
  </g>
  <g id="Semibold-L" transform="matrix(1 0 0 1 1960.38 1556)">
   <path d="M 103.76 29.4922 C 106.494 29.4922 109.424 28.4668 111.816 27.002 L 143.457 8.98438 C 147.803 6.54297 149.658 3.36914 149.658 -1.41602 L 149.658 -89.3066 C 149.658 -94.5801 146.387 -97.8516 141.162 -97.8516 C 139.014 -97.8516 137.158 -96.9238 134.619 -95.6055 L 102.1 -77.5391 L 69.9707 -97.3633 C 67.5293 -98.9746 64.7949 -99.9023 62.0117 -99.9023 C 59.1309 -99.9023 56.2012 -98.9258 53.7109 -97.3633 L 22.3145 -79.3945 C 17.9199 -76.9531 16.0645 -73.7793 16.0645 -68.9453 L 16.0645 18.8477 C 16.0645 24.1699 19.3359 27.3926 24.5605 27.3926 C 26.709 27.3926 28.6133 26.5137 31.1523 25.1953 L 62.793 7.8125 L 95.459 26.8555 C 97.9492 28.418 100.977 29.4922 103.76 29.4922 Z M 28.7598 12.5488 C 27.9297 12.5488 27.4902 11.9629 27.4902 10.9863 L 27.4902 -65.7227 C 27.4902 -67.5781 28.125 -68.6523 29.834 -69.6777 L 54.7363 -84.4238 C 55.3711 -84.7656 56.0059 -85.1074 56.6895 -85.4492 L 56.6895 -2.63672 L 29.9805 12.207 C 29.4922 12.4512 29.1016 12.5488 28.7598 12.5488 Z M 97.4609 13.916 C 96.6797 13.5254 95.8496 13.1348 95.0684 12.6953 L 68.3105 -3.07617 L 68.3105 -84.375 C 68.9453 -84.0332 69.6777 -83.6426 70.3125 -83.252 L 97.4609 -66.4551 Z M 109.082 14.9902 L 109.082 -67.9688 L 135.791 -82.6172 C 136.23 -82.8613 136.67 -83.0078 137.012 -83.0078 C 137.842 -83.0078 138.281 -82.373 138.281 -81.4453 L 138.281 -4.6875 C 138.281 -2.83203 137.646 -1.75781 135.938 -0.683594 L 111.816 13.4766 C 110.889 14.0625 110.01 14.502 109.082 14.9902 Z"/>
  </g>
  <g id="Bold-L" transform="matrix(1 0 0 1 2255.6 1556)">
   <path d="M 105.469 30.7617 C 108.594 30.7617 112.061 29.4922 114.697 27.832 L 145.703 10.2539 C 150.586 7.51953 152.637 4.00391 152.637 -1.31836 L 152.637 -89.7949 C 152.637 -95.6543 148.877 -99.4141 142.92 -99.4141 C 140.43 -99.4141 138.281 -98.291 135.352 -96.7773 L 103.32 -78.8574 L 72.2168 -98.1934 C 69.4824 -100.098 66.4062 -101.221 63.3301 -101.221 C 60.0586 -101.221 56.7383 -99.9512 53.9062 -98.1934 L 23.0469 -80.6641 C 18.1152 -77.9297 16.0645 -74.4141 16.0645 -69.0918 L 16.0645 19.3359 C 16.0645 25.2441 19.873 28.9551 25.7812 28.9551 C 28.3203 28.9551 30.4199 27.832 33.3496 26.3672 L 64.6484 9.13086 L 96.2402 27.6855 C 98.9258 29.4434 102.393 30.7617 105.469 30.7617 Z M 30.5176 11.9141 C 29.5898 11.9141 29.0527 11.1816 29.0527 10.1074 L 29.0527 -65.1855 C 29.0527 -67.2363 29.7363 -68.3105 31.5918 -69.4336 L 55.2246 -83.4473 C 55.8594 -83.7891 56.4453 -84.082 57.0801 -84.4238 L 57.0801 -2.44141 L 31.8848 11.5234 C 31.3477 11.8164 30.9082 11.9141 30.5176 11.9141 Z M 98.3398 12.8906 C 97.5586 12.5 96.8262 12.0605 96.0449 11.6211 L 70.4102 -3.71094 L 70.4102 -83.3496 C 71.0449 -82.959 71.7773 -82.5684 72.4121 -82.1777 L 98.3398 -65.918 Z M 111.67 13.9648 L 111.67 -68.0664 L 136.865 -81.9336 C 137.354 -82.2266 137.842 -82.373 138.232 -82.373 C 139.16 -82.373 139.648 -81.6406 139.648 -80.5176 L 139.648 -5.22461 C 139.648 -3.125 138.965 -2.09961 137.109 -0.976562 L 114.453 12.4512 C 113.525 13.0371 112.598 13.4766 111.67 13.9648 Z"/>
  </g>
  <g id="Heavy-L" transform="matrix(1 0 0 1 2550.17 1556)">
   <path d="M 107.959 32.666 C 111.621 32.666 115.82 30.957 118.848 29.0039 L 148.926 12.0605 C 154.639 8.88672 156.982 4.93164 156.982 -1.12305 L 156.982 -90.5273 C 156.982 -97.2168 152.441 -101.66 145.508 -101.66 C 142.432 -101.66 139.99 -100.195 136.475 -98.4863 L 105.127 -80.8105 L 75.4395 -99.4141 C 72.3145 -101.66 68.7988 -103.076 65.1855 -103.076 C 61.4258 -103.076 57.4707 -101.465 54.248 -99.4141 L 24.1211 -82.4707 C 18.3594 -79.2969 16.0645 -75.3418 16.0645 -69.2871 L 16.0645 20.0684 C 16.0645 26.8066 20.6055 31.25 27.5391 31.25 C 30.6152 31.25 33.0566 29.7852 36.5723 28.0273 L 67.3828 10.9863 L 97.4121 28.9062 C 100.342 30.957 104.395 32.666 107.959 32.666 Z M 33.0566 11.0352 C 31.9336 11.0352 31.3477 10.1074 31.3477 8.78906 L 31.3477 -64.4043 C 31.3477 -66.7969 32.1289 -67.8223 34.1309 -69.043 L 56.0059 -82.0312 C 56.543 -82.373 57.0312 -82.6172 57.6172 -82.959 L 57.6172 -2.24609 L 34.668 10.5469 C 34.0332 10.8887 33.4961 11.0352 33.0566 11.0352 Z M 99.6094 11.377 C 98.9258 10.9863 98.1934 10.5469 97.4609 10.1562 L 73.4375 -4.54102 L 73.4375 -81.8359 C 74.1211 -81.4453 74.8047 -81.0547 75.4883 -80.6152 L 99.6094 -65.2344 Z M 115.43 12.5488 L 115.43 -68.1641 L 138.379 -80.957 C 139.014 -81.2988 139.551 -81.4453 139.99 -81.4453 C 141.162 -81.4453 141.699 -80.5176 141.699 -79.248 L 141.699 -6.00586 C 141.699 -3.61328 140.918 -2.58789 138.916 -1.36719 L 118.311 10.9375 C 117.334 11.5723 116.406 12.0117 115.43 12.5488 Z"/>
  </g>
  <g id="Black-L" transform="matrix(1 0 0 1 2844.95 1556)">
   <path d="M 110.205 34.3262 C 114.307 34.3262 119.141 32.2754 122.51 30.0781 L 151.855 13.7207 C 158.252 10.1562 160.84 5.71289 160.84 -0.976562 L 160.84 -91.1621 C 160.84 -98.6328 155.664 -103.662 147.803 -103.662 C 144.238 -103.662 141.455 -101.953 137.451 -99.9512 L 106.738 -82.5684 L 78.3203 -100.488 C 74.9023 -103.076 70.9473 -104.736 66.8945 -104.736 C 62.5977 -104.736 58.2031 -102.832 54.541 -100.488 L 25.0488 -84.1309 C 18.6035 -80.5664 16.0645 -76.123 16.0645 -69.4336 L 16.0645 20.7031 C 16.0645 28.1738 21.2402 33.252 29.1016 33.252 C 32.666 33.252 35.4492 31.4941 39.4531 29.541 L 69.8242 12.6465 L 98.4375 29.9805 C 101.611 32.2754 106.201 34.3262 110.205 34.3262 Z M 35.3516 10.2051 C 34.0332 10.2051 33.3984 9.13086 33.3984 7.61719 L 33.3984 -63.7207 C 33.3984 -66.3574 34.2285 -67.3828 36.4258 -68.7012 L 56.6406 -80.7617 C 57.1777 -81.1035 57.6172 -81.2988 58.1055 -81.6406 L 58.1055 -2.05078 L 37.1582 9.66797 C 36.4258 10.0586 35.8398 10.2051 35.3516 10.2051 Z M 118.799 11.2793 L 118.799 -68.3105 L 139.746 -80.0781 C 140.479 -80.4688 141.064 -80.6641 141.553 -80.6641 C 142.92 -80.6641 143.506 -79.541 143.506 -78.0762 L 143.506 -6.68945 C 143.506 -4.05273 142.676 -3.07617 140.479 -1.70898 L 121.729 9.61914 C 120.703 10.2539 119.775 10.6934 118.799 11.2793 Z M 100.781 10.0098 C 100.098 9.61914 99.4141 9.17969 98.7305 8.78906 L 76.123 -5.32227 L 76.123 -80.4688 C 76.8066 -80.0293 77.4902 -79.6387 78.1738 -79.1992 L 100.781 -64.5996 Z"/>
  </g>
 </g>
</svg>
