<?xml version="1.0" encoding="UTF-8"?>
<!--Generator: Apple Native CoreSVG 123-->
<!DOCTYPE svg
PUBLIC "-//W3C//DTD SVG 1.1//EN"
       "http://www.w3.org/Graphics/SVG/1.1/DTD/svg11.dtd">
<svg version="1.1" xmlns="http://www.w3.org/2000/svg" xmlns:xlink="http://www.w3.org/1999/xlink" width="3300" height="2200">
 <!--glyph: "uni10042B.medium", point size: 100.000000, font version: "Version 15.0d4e20", template writer version: "2"-->
 <g id="Notes">
  <rect height="2200" id="artboard" style="fill:white;opacity:1" width="3300" x="0" y="0"/>
  <line id="" style="fill:none;stroke:black;opacity:1;stroke-width:0.5;" x1="263" x2="3036" y1="292" y2="292"/>
  <text style="stroke:none;fill:black;font-family:-apple-system,&quot;SF Pro Display&quot;,&quot;SF Pro Text&quot;,Helvetica,sans-serif;font-weight:bold;" transform="matrix(1 0 0 1 263 322)">Weight/Scale Variations</text>
  <text style="stroke:none;fill:black;font-family:-apple-system,&quot;SF Pro Display&quot;,&quot;SF Pro Text&quot;,Helvetica,sans-serif;text-anchor:middle;" transform="matrix(1 0 0 1 559.711 322)">Ultralight</text>
  <text style="stroke:none;fill:black;font-family:-apple-system,&quot;SF Pro Display&quot;,&quot;SF Pro Text&quot;,Helvetica,sans-serif;text-anchor:middle;" transform="matrix(1 0 0 1 856.422 322)">Thin</text>
  <text style="stroke:none;fill:black;font-family:-apple-system,&quot;SF Pro Display&quot;,&quot;SF Pro Text&quot;,Helvetica,sans-serif;text-anchor:middle;" transform="matrix(1 0 0 1 1153.13 322)">Light</text>
  <text style="stroke:none;fill:black;font-family:-apple-system,&quot;SF Pro Display&quot;,&quot;SF Pro Text&quot;,Helvetica,sans-serif;text-anchor:middle;" transform="matrix(1 0 0 1 1449.84 322)">Regular</text>
  <text style="stroke:none;fill:black;font-family:-apple-system,&quot;SF Pro Display&quot;,&quot;SF Pro Text&quot;,Helvetica,sans-serif;text-anchor:middle;" transform="matrix(1 0 0 1 1746.56 322)">Medium</text>
  <text style="stroke:none;fill:black;font-family:-apple-system,&quot;SF Pro Display&quot;,&quot;SF Pro Text&quot;,Helvetica,sans-serif;text-anchor:middle;" transform="matrix(1 0 0 1 2043.27 322)">Semibold</text>
  <text style="stroke:none;fill:black;font-family:-apple-system,&quot;SF Pro Display&quot;,&quot;SF Pro Text&quot;,Helvetica,sans-serif;text-anchor:middle;" transform="matrix(1 0 0 1 2339.98 322)">Bold</text>
  <text style="stroke:none;fill:black;font-family:-apple-system,&quot;SF Pro Display&quot;,&quot;SF Pro Text&quot;,Helvetica,sans-serif;text-anchor:middle;" transform="matrix(1 0 0 1 2636.69 322)">Heavy</text>
  <text style="stroke:none;fill:black;font-family:-apple-system,&quot;SF Pro Display&quot;,&quot;SF Pro Text&quot;,Helvetica,sans-serif;text-anchor:middle;" transform="matrix(1 0 0 1 2933.4 322)">Black</text>
  <line id="" style="fill:none;stroke:black;opacity:1;stroke-width:0.5;" x1="263" x2="3036" y1="1903" y2="1903"/>
  <g id="" transform="matrix(1 0 0 1 263 1933)">
   <path d="M 9.24805 0.830078 C 13.5547 0.830078 17.1387 -2.74414 17.1387 -7.05078 C 17.1387 -11.3574 13.5449 -14.9316 9.23828 -14.9316 C 4.94141 -14.9316 1.36719 -11.3574 1.36719 -7.05078 C 1.36719 -2.74414 4.95117 0.830078 9.24805 0.830078 Z M 9.24805 -0.654297 C 5.70312 -0.654297 2.87109 -3.49609 2.87109 -7.05078 C 2.87109 -10.6055 5.69336 -13.4473 9.23828 -13.4473 C 12.793 -13.4473 15.6348 -10.6055 15.6445 -7.05078 C 15.6543 -3.49609 12.8027 -0.654297 9.24805 -0.654297 Z M 9.22852 -3.42773 C 9.69727 -3.42773 9.9707 -3.74023 9.9707 -4.25781 L 9.9707 -6.31836 L 12.1973 -6.31836 C 12.6953 -6.31836 13.0371 -6.57227 13.0371 -7.04102 C 13.0371 -7.51953 12.7148 -7.7832 12.1973 -7.7832 L 9.9707 -7.7832 L 9.9707 -10.0098 C 9.9707 -10.5273 9.69727 -10.8496 9.22852 -10.8496 C 8.75977 -10.8496 8.50586 -10.5078 8.50586 -10.0098 L 8.50586 -7.7832 L 6.29883 -7.7832 C 5.78125 -7.7832 5.44922 -7.51953 5.44922 -7.04102 C 5.44922 -6.57227 5.80078 -6.31836 6.29883 -6.31836 L 8.50586 -6.31836 L 8.50586 -4.25781 C 8.50586 -3.75977 8.75977 -3.42773 9.22852 -3.42773 Z"/>
  </g>
  <g id="" transform="matrix(1 0 0 1 281.506 1933)">
   <path d="M 11.709 2.91016 C 17.1484 2.91016 21.6699 -1.60156 21.6699 -7.05078 C 21.6699 -12.4902 17.1387 -17.0117 11.6992 -17.0117 C 6.25 -17.0117 1.74805 -12.4902 1.74805 -7.05078 C 1.74805 -1.60156 6.25977 2.91016 11.709 2.91016 Z M 11.709 1.25 C 7.09961 1.25 3.41797 -2.44141 3.41797 -7.05078 C 3.41797 -11.6504 7.08984 -15.3516 11.6992 -15.3516 C 16.2988 -15.3516 20 -11.6504 20.0098 -7.05078 C 20.0195 -2.44141 16.3086 1.25 11.709 1.25 Z M 11.6797 -2.41211 C 12.207 -2.41211 12.5195 -2.77344 12.5195 -3.33984 L 12.5195 -6.23047 L 15.5762 -6.23047 C 16.123 -6.23047 16.5039 -6.51367 16.5039 -7.03125 C 16.5039 -7.55859 16.1426 -7.86133 15.5762 -7.86133 L 12.5195 -7.86133 L 12.5195 -10.9277 C 12.5195 -11.5039 12.207 -11.8555 11.6797 -11.8555 C 11.1621 -11.8555 10.8789 -11.4844 10.8789 -10.9277 L 10.8789 -7.86133 L 7.83203 -7.86133 C 7.25586 -7.86133 6.89453 -7.55859 6.89453 -7.03125 C 6.89453 -6.51367 7.28516 -6.23047 7.83203 -6.23047 L 10.8789 -6.23047 L 10.8789 -3.33984 C 10.8789 -2.79297 11.1621 -2.41211 11.6797 -2.41211 Z"/>
  </g>
  <g id="" transform="matrix(1 0 0 1 304.914 1933)">
   <path d="M 14.9707 5.67383 C 21.9336 5.67383 27.6855 -0.078125 27.6855 -7.04102 C 27.6855 -14.0039 21.9238 -19.7559 14.9609 -19.7559 C 7.99805 -19.7559 2.25586 -14.0039 2.25586 -7.04102 C 2.25586 -0.078125 8.00781 5.67383 14.9707 5.67383 Z M 14.9707 3.85742 C 8.92578 3.85742 4.08203 -1.00586 4.08203 -7.04102 C 4.08203 -13.0762 8.91602 -17.9395 14.9609 -17.9395 C 20.9961 -17.9395 25.8594 -13.0762 25.8691 -7.04102 C 25.8789 -1.00586 21.0059 3.85742 14.9707 3.85742 Z M 14.9414 -1.06445 C 15.5176 -1.06445 15.8594 -1.45508 15.8594 -2.06055 L 15.8594 -6.13281 L 20.0977 -6.13281 C 20.6934 -6.13281 21.1133 -6.46484 21.1133 -7.02148 C 21.1133 -7.59766 20.7227 -7.93945 20.0977 -7.93945 L 15.8594 -7.93945 L 15.8594 -12.1875 C 15.8594 -12.8027 15.5176 -13.1934 14.9414 -13.1934 C 14.3848 -13.1934 14.0625 -12.7832 14.0625 -12.1875 L 14.0625 -7.93945 L 9.82422 -7.93945 C 9.20898 -7.93945 8.80859 -7.59766 8.80859 -7.02148 C 8.80859 -6.46484 9.23828 -6.13281 9.82422 -6.13281 L 14.0625 -6.13281 L 14.0625 -2.06055 C 14.0625 -1.47461 14.3848 -1.06445 14.9414 -1.06445 Z"/>
  </g>
  <text style="stroke:none;fill:black;font-family:-apple-system,&quot;SF Pro Display&quot;,&quot;SF Pro Text&quot;,Helvetica,sans-serif;font-weight:bold;" transform="matrix(1 0 0 1 263 1953)">Design Variations</text>
  <text style="stroke:none;fill:black;font-family:-apple-system,&quot;SF Pro Display&quot;,&quot;SF Pro Text&quot;,Helvetica,sans-serif;" transform="matrix(1 0 0 1 263 1971)">Symbols are supported in up to nine weights and three scales.</text>
  <text style="stroke:none;fill:black;font-family:-apple-system,&quot;SF Pro Display&quot;,&quot;SF Pro Text&quot;,Helvetica,sans-serif;" transform="matrix(1 0 0 1 263 1989)">For optimal layout with text and other symbols, vertically align</text>
  <text style="stroke:none;fill:black;font-family:-apple-system,&quot;SF Pro Display&quot;,&quot;SF Pro Text&quot;,Helvetica,sans-serif;" transform="matrix(1 0 0 1 263 2007)">symbols with the adjacent text.</text>
  <rect height="14" id="" style="fill:#00AEEF;stroke:none;opacity:0.4;" width="3" x="776" y="1919"/>
  <g id="" transform="matrix(1 0 0 1 779 1933)">
   <path d="M 10.5273 0 L 12.373 0 L 7.17773 -14.0918 L 5.43945 -14.0918 L 0.244141 0 L 2.08984 0 L 3.50586 -4.0332 L 9.11133 -4.0332 Z M 6.2793 -11.9531 L 6.33789 -11.9531 L 8.59375 -5.52734 L 4.02344 -5.52734 Z"/>
  </g>
  <rect height="14" id="" style="fill:#00AEEF;stroke:none;opacity:0.4;" width="3" x="791.617" y="1919"/>
  <text style="stroke:none;fill:black;font-family:-apple-system,&quot;SF Pro Display&quot;,&quot;SF Pro Text&quot;,Helvetica,sans-serif;font-weight:bold;" transform="matrix(1 0 0 1 776 1953)">Side Bearings</text>
  <text style="stroke:none;fill:black;font-family:-apple-system,&quot;SF Pro Display&quot;,&quot;SF Pro Text&quot;,Helvetica,sans-serif;" transform="matrix(1 0 0 1 776 1971)">Horizontal padding on the left and right side of each symbol</text>
  <text style="stroke:none;fill:black;font-family:-apple-system,&quot;SF Pro Display&quot;,&quot;SF Pro Text&quot;,Helvetica,sans-serif;" transform="matrix(1 0 0 1 776 1989)">can be adjusted by modifying the width of the blue rectangles.</text>
  <text style="stroke:none;fill:black;font-family:-apple-system,&quot;SF Pro Display&quot;,&quot;SF Pro Text&quot;,Helvetica,sans-serif;" transform="matrix(1 0 0 1 776 2007)">Modifications are automatically applied proportionally to all</text>
  <text style="stroke:none;fill:black;font-family:-apple-system,&quot;SF Pro Display&quot;,&quot;SF Pro Text&quot;,Helvetica,sans-serif;" transform="matrix(1 0 0 1 776 2025)">scales and weights.</text>
  <g id="" transform="matrix(1 0 0 1 1289 1933)">
   <path d="M 2.96875 2.35352 L 3.80859 3.19336 C 4.84375 4.22852 6.12305 4.15039 7.19727 2.97852 L 16.1621 -6.82617 C 16.5527 -6.74805 16.9629 -6.8457 17.4902 -7.02148 C 18.1738 -7.25586 18.2715 -7.25586 18.3887 -7.13867 C 18.5352 -7.01172 18.4863 -6.89453 18.2422 -6.25 C 17.8809 -5.33203 17.8125 -4.79492 18.5547 -4.02344 L 19.4238 -3.13477 C 20.2734 -2.24609 21.3281 -2.26562 22.2168 -3.14453 L 25.0586 -5.97656 C 25.9473 -6.86523 25.957 -7.92969 25.0781 -8.7793 L 24.1797 -9.64844 C 23.4082 -10.4004 22.8711 -10.3516 21.9629 -9.98047 C 21.3184 -9.72656 21.2012 -9.6875 21.0645 -9.81445 C 20.9375 -9.93164 20.9473 -10.0391 21.1816 -10.7129 C 21.5332 -11.6895 21.5723 -12.2852 20.752 -13.0957 L 19.3359 -14.5117 C 15.1953 -18.6133 11.2305 -18.7402 7.65625 -15.4395 C 7.08008 -14.9023 6.99219 -14.1504 7.53906 -13.6133 L 7.79297 -13.3594 C 8.22266 -12.9297 8.86719 -12.8418 9.41406 -13.1152 C 11.0645 -13.9453 12.2559 -14.0234 13.457 -12.9785 L 13.0273 -11.416 C 12.8516 -10.8008 12.793 -10.3418 12.9199 -9.93164 L 3.18359 -1.04492 C 2.02148 0.0292969 1.93359 1.32812 2.96875 2.35352 Z M 8.96484 -14.4922 C 8.89648 -14.5703 8.86719 -14.6582 8.99414 -14.7559 C 11.709 -17.2852 15.0391 -16.8457 18.3496 -13.5254 L 19.6973 -12.168 C 20.0879 -11.7773 20.0977 -11.582 19.8828 -10.8691 C 19.6582 -10.127 19.502 -9.53125 20.1465 -8.88672 C 20.8105 -8.22266 21.2891 -8.41797 22.207 -8.63281 C 22.9004 -8.79883 23.0664 -8.79883 23.4473 -8.41797 L 24.0918 -7.77344 C 24.4043 -7.48047 24.4141 -7.32422 24.0723 -6.97266 L 21.2207 -4.13086 C 20.8887 -3.79883 20.7227 -3.79883 20.4297 -4.10156 L 19.7852 -4.75586 C 19.4141 -5.13672 19.4141 -5.30273 19.5801 -6.01562 C 19.7852 -6.88477 19.9805 -7.38281 19.3262 -8.04688 C 18.6719 -8.7207 18.0762 -8.57422 17.3438 -8.33008 C 16.5625 -8.06641 16.3281 -8.06641 15.8984 -8.49609 L 14.6094 -9.78516 C 14.1699 -10.2246 14.1309 -10.4395 14.2676 -10.9082 L 15.0293 -13.3984 C 13.3887 -15.2832 11.4941 -15.5566 9.20898 -14.4434 C 9.11133 -14.3945 9.04297 -14.4141 8.96484 -14.4922 Z M 3.96484 1.36719 C 3.52539 0.927734 3.54492 0.537109 4.14062 -0.00976562 L 13.7402 -8.81836 L 15 -7.55859 L 6.17188 2.02148 C 5.625 2.60742 5.24414 2.64648 4.79492 2.19727 Z"/>
  </g>
  <text style="stroke:none;fill:black;font-family:-apple-system,&quot;SF Pro Display&quot;,&quot;SF Pro Text&quot;,Helvetica,sans-serif;font-weight:bold;" transform="matrix(1 0 0 1 1289 1953)">Exporting</text>
  <text style="stroke:none;fill:black;font-family:-apple-system,&quot;SF Pro Display&quot;,&quot;SF Pro Text&quot;,Helvetica,sans-serif;" transform="matrix(1 0 0 1 1289 1971)">Symbols should be outlined when exporting to ensure the</text>
  <text style="stroke:none;fill:black;font-family:-apple-system,&quot;SF Pro Display&quot;,&quot;SF Pro Text&quot;,Helvetica,sans-serif;" transform="matrix(1 0 0 1 1289 1989)">design is preserved when submitting to Xcode.</text>
  <text id="template-version" style="stroke:none;fill:black;font-family:-apple-system,&quot;SF Pro Display&quot;,&quot;SF Pro Text&quot;,Helvetica,sans-serif;text-anchor:end;" transform="matrix(1 0 0 1 3036 1933)">Template v.0.1</text>
  <text style="stroke:none;fill:black;font-family:-apple-system,&quot;SF Pro Display&quot;,&quot;SF Pro Text&quot;,Helvetica,sans-serif;text-anchor:end;" transform="matrix(1 0 0 1 3036 1951)">Generated from clock</text>
  <text style="stroke:none;fill:black;font-family:-apple-system,&quot;SF Pro Display&quot;,&quot;SF Pro Text&quot;,Helvetica,sans-serif;text-anchor:end;" transform="matrix(1 0 0 1 3036 1969)">Typeset at 100 points</text>
  <text style="stroke:none;fill:black;font-family:-apple-system,&quot;SF Pro Display&quot;,&quot;SF Pro Text&quot;,Helvetica,sans-serif;" transform="matrix(1 0 0 1 263 726)">Small</text>
  <text style="stroke:none;fill:black;font-family:-apple-system,&quot;SF Pro Display&quot;,&quot;SF Pro Text&quot;,Helvetica,sans-serif;" transform="matrix(1 0 0 1 263 1156)">Medium</text>
  <text style="stroke:none;fill:black;font-family:-apple-system,&quot;SF Pro Display&quot;,&quot;SF Pro Text&quot;,Helvetica,sans-serif;" transform="matrix(1 0 0 1 263 1586)">Large</text>
 </g>
 <g id="Guides">
  <g id="H-reference" style="fill:#27AAE1;stroke:none;" transform="matrix(1 0 0 1 339 696)">
   <path d="M 54.9316 0 L 57.666 0 L 30.5664 -70.459 L 28.0762 -70.459 L 0.976562 0 L 3.66211 0 L 12.9395 -24.4629 L 45.7031 -24.4629 Z M 29.1992 -67.0898 L 29.4434 -67.0898 L 44.8242 -26.709 L 13.8184 -26.709 Z"/>
  </g>
  <line id="Baseline-S" style="fill:none;stroke:#27AAE1;opacity:1;stroke-width:0.577;" x1="263" x2="3036" y1="696" y2="696"/>
  <line id="Capline-S" style="fill:none;stroke:#27AAE1;opacity:1;stroke-width:0.577;" x1="263" x2="3036" y1="625.541" y2="625.541"/>
  <g id="H-reference" style="fill:#27AAE1;stroke:none;" transform="matrix(1 0 0 1 339 1126)">
   <path d="M 54.9316 0 L 57.666 0 L 30.5664 -70.459 L 28.0762 -70.459 L 0.976562 0 L 3.66211 0 L 12.9395 -24.4629 L 45.7031 -24.4629 Z M 29.1992 -67.0898 L 29.4434 -67.0898 L 44.8242 -26.709 L 13.8184 -26.709 Z"/>
  </g>
  <line id="Baseline-M" style="fill:none;stroke:#27AAE1;opacity:1;stroke-width:0.577;" x1="263" x2="3036" y1="1126" y2="1126"/>
  <line id="Capline-M" style="fill:none;stroke:#27AAE1;opacity:1;stroke-width:0.577;" x1="263" x2="3036" y1="1055.54" y2="1055.54"/>
  <g id="H-reference" style="fill:#27AAE1;stroke:none;" transform="matrix(1 0 0 1 339 1556)">
   <path d="M 54.9316 0 L 57.666 0 L 30.5664 -70.459 L 28.0762 -70.459 L 0.976562 0 L 3.66211 0 L 12.9395 -24.4629 L 45.7031 -24.4629 Z M 29.1992 -67.0898 L 29.4434 -67.0898 L 44.8242 -26.709 L 13.8184 -26.709 Z"/>
  </g>
  <line id="Baseline-L" style="fill:none;stroke:#27AAE1;opacity:1;stroke-width:0.577;" x1="263" x2="3036" y1="1556" y2="1556"/>
  <line id="Capline-L" style="fill:none;stroke:#27AAE1;opacity:1;stroke-width:0.577;" x1="263" x2="3036" y1="1485.54" y2="1485.54"/>
  <rect height="119.336" id="left-margin" style="fill:#00AEEF;stroke:none;opacity:0.4;" width="8.74023" x="1391.32" y="1030.79"/>
  <rect height="119.336" id="right-margin" style="fill:#00AEEF;stroke:none;opacity:0.4;" width="8.69141" x="1499.67" y="1030.79"/>
 </g>
 <g id="Symbols">
  <g id="Ultralight-S" transform="matrix(1 0 0 1 515.644 696)">
   <path d="M 44.043 2.05078 C 64.502 2.05078 81.2988 -14.6973 81.2988 -35.1562 C 81.2988 -55.6152 64.502 -72.3633 44.043 -72.3633 C 23.584 -72.3633 6.83594 -55.6152 6.83594 -35.1562 C 6.83594 -14.6973 23.584 2.05078 44.043 2.05078 Z M 44.043 -0.146484 C 24.7559 -0.146484 9.08203 -15.8691 9.08203 -35.1562 C 9.08203 -54.4434 24.7559 -70.166 44.043 -70.166 C 63.3789 -70.166 79.0527 -54.4434 79.0527 -35.1562 C 79.0527 -15.8691 63.3789 -0.146484 44.043 -0.146484 Z M 21.875 -32.1777 L 44.043 -32.1777 C 44.6777 -32.1777 45.166 -32.666 45.166 -33.3008 L 45.166 -61.9141 C 45.166 -62.5 44.6777 -62.9395 44.043 -62.9395 C 43.5059 -62.9395 43.0176 -62.5 43.0176 -61.9141 L 43.0176 -34.3262 L 21.875 -34.3262 C 21.2402 -34.3262 20.8008 -33.8379 20.8008 -33.3008 C 20.8008 -32.666 21.2402 -32.1777 21.875 -32.1777 Z"/>
  </g>
  <g id="Thin-S" transform="matrix(1 0 0 1 811.867 696)">
   <path d="M 44.5801 2.53906 C 65.2832 2.53906 82.2754 -14.4531 82.2754 -35.2051 C 82.2754 -55.9082 65.2344 -72.9004 44.5312 -72.9004 C 23.8281 -72.9004 6.83594 -55.9082 6.83594 -35.2051 C 6.83594 -14.4531 23.877 2.53906 44.5801 2.53906 Z M 44.5801 -0.878906 C 25.5859 -0.878906 10.2539 -16.2109 10.2539 -35.2051 C 10.2539 -54.1504 25.5859 -69.4824 44.5312 -69.4824 C 63.5254 -69.4824 78.8574 -54.1504 78.8574 -35.2051 C 78.8574 -16.2109 63.5254 -0.878906 44.5801 -0.878906 Z M 22.998 -31.8848 L 44.5312 -31.8848 C 45.4102 -31.8848 46.0938 -32.5195 46.0938 -33.4473 L 46.0938 -61.2793 C 46.0938 -62.1094 45.4102 -62.7441 44.5312 -62.7441 C 43.75 -62.7441 43.0664 -62.1094 43.0664 -61.2793 L 43.0664 -34.9121 L 22.998 -34.9121 C 22.1191 -34.9121 21.4844 -34.2285 21.4844 -33.4473 C 21.4844 -32.5195 22.1191 -31.8848 22.998 -31.8848 Z"/>
  </g>
  <g id="Light-S" transform="matrix(1 0 0 1 1107.6 696)">
   <path d="M 45.5078 3.4668 C 66.6992 3.4668 84.2285 -14.0625 84.2285 -35.2051 C 84.2285 -56.3965 66.6504 -73.9258 45.5078 -73.9258 C 24.3164 -73.9258 6.83594 -56.3965 6.83594 -35.2051 C 6.83594 -14.0625 24.3652 3.4668 45.5078 3.4668 Z M 45.5078 -2.24609 C 27.2461 -2.24609 12.5977 -16.9434 12.5977 -35.2051 C 12.5977 -53.5156 27.1973 -68.2129 45.5078 -68.2129 C 63.7695 -68.2129 78.4668 -53.5156 78.5156 -35.2051 C 78.5156 -16.9434 63.8184 -2.24609 45.5078 -2.24609 Z M 25.0977 -31.2988 L 45.5078 -31.2988 C 46.8262 -31.2988 47.9004 -32.373 47.9004 -33.6914 L 47.9004 -60.0098 C 47.9004 -61.3281 46.8262 -62.3535 45.5078 -62.3535 C 44.1895 -62.3535 43.1641 -61.3281 43.1641 -60.0098 L 43.1641 -36.0352 L 25.0977 -36.0352 C 23.7793 -36.0352 22.7539 -35.0098 22.7539 -33.6914 C 22.7539 -32.373 23.7793 -31.2988 25.0977 -31.2988 Z"/>
  </g>
  <g id="Regular-S" transform="matrix(1 0 0 1 1403.58 696)">
   <path d="M 46.2402 4.15039 C 67.7734 4.15039 85.6934 -13.7207 85.6934 -35.2539 C 85.6934 -56.7871 67.7246 -74.6582 46.1914 -74.6582 C 24.707 -74.6582 6.83594 -56.7871 6.83594 -35.2539 C 6.83594 -13.7207 24.7559 4.15039 46.2402 4.15039 Z M 46.2402 -3.27148 C 28.5156 -3.27148 14.3555 -17.4805 14.3555 -35.2539 C 14.3555 -53.0273 28.4668 -67.2363 46.1914 -67.2363 C 63.9648 -67.2363 78.1738 -53.0273 78.2227 -35.2539 C 78.2715 -17.4805 64.0137 -3.27148 46.2402 -3.27148 Z M 26.709 -30.9082 L 46.1914 -30.9082 C 47.9004 -30.9082 49.2188 -32.2266 49.2188 -33.8867 L 49.2188 -59.0332 C 49.2188 -60.7422 47.9004 -62.0605 46.1914 -62.0605 C 44.5312 -62.0605 43.2129 -60.7422 43.2129 -59.0332 L 43.2129 -36.9141 L 26.709 -36.9141 C 25 -36.9141 23.7305 -35.5957 23.7305 -33.8867 C 23.7305 -32.2266 25 -30.9082 26.709 -30.9082 Z"/>
  </g>
  <g id="Medium-S" transform="matrix(1 0 0 1 1699.7 696)">
   <path d="M 46.8262 4.78516 C 68.75 4.78516 86.8652 -13.3301 86.8652 -35.2539 C 86.8652 -57.1289 68.7012 -75.2441 46.8262 -75.2441 C 24.9023 -75.2441 6.83594 -57.1289 6.83594 -35.2539 C 6.83594 -13.3301 24.9512 4.78516 46.8262 4.78516 Z M 46.8262 -4.19922 C 29.6387 -4.19922 15.8691 -18.0176 15.8691 -35.2539 C 15.8691 -52.4414 29.5898 -66.2598 46.8262 -66.2598 C 64.0137 -66.2598 77.832 -52.4414 77.8809 -35.2539 C 77.8809 -18.0176 64.0625 -4.19922 46.8262 -4.19922 Z M 28.125 -30.0781 L 46.8262 -30.0781 C 48.7305 -30.0781 50.2441 -31.5918 50.2441 -33.5449 L 50.2441 -57.8613 C 50.2441 -59.7656 48.7305 -61.2793 46.8262 -61.2793 C 44.873 -61.2793 43.3594 -59.7656 43.3594 -57.8613 L 43.3594 -36.9629 L 28.125 -36.9629 C 26.1719 -36.9629 24.6582 -35.4492 24.6582 -33.5449 C 24.6582 -31.5918 26.1719 -30.0781 28.125 -30.0781 Z"/>
  </g>
  <g id="Semibold-S" transform="matrix(1 0 0 1 1995.98 696)">
   <path d="M 47.3145 5.22461 C 69.4824 5.22461 87.7441 -13.0371 87.7441 -35.2539 C 87.7441 -57.4219 69.4336 -75.6836 47.2656 -75.6836 C 25.0977 -75.6836 6.83594 -57.4219 6.83594 -35.2539 C 6.83594 -13.0371 25.0977 5.22461 47.3145 5.22461 Z M 47.3145 -4.93164 C 30.4688 -4.93164 17.041 -18.4082 17.041 -35.2539 C 17.041 -52.0508 30.4688 -65.5273 47.2656 -65.5273 C 64.0625 -65.5273 77.5879 -52.0508 77.5879 -35.2539 C 77.6367 -18.4082 64.1113 -4.93164 47.3145 -4.93164 Z M 29.1504 -29.4922 L 47.2656 -29.4922 C 49.3652 -29.4922 51.0254 -31.1035 51.0254 -33.252 L 51.0254 -56.9336 C 51.0254 -59.0332 49.3652 -60.6934 47.2656 -60.6934 C 45.166 -60.6934 43.5059 -59.0332 43.5059 -56.9336 L 43.5059 -37.0117 L 29.1504 -37.0117 C 27.0508 -37.0117 25.3906 -35.3516 25.3906 -33.252 C 25.3906 -31.1035 27.0508 -29.4922 29.1504 -29.4922 Z"/>
  </g>
  <g id="Bold-S" transform="matrix(1 0 0 1 2292.1 696)">
   <path d="M 47.9004 5.81055 C 70.4102 5.81055 88.916 -12.6465 88.916 -35.2051 C 88.916 -57.7637 70.4102 -76.2695 47.8516 -76.2695 C 25.293 -76.2695 6.83594 -57.7637 6.83594 -35.2051 C 6.83594 -12.6465 25.3418 5.81055 47.9004 5.81055 Z M 47.9004 -5.85938 C 31.6406 -5.85938 18.5547 -18.9453 18.5547 -35.2051 C 18.5547 -51.4648 31.5918 -64.5508 47.8516 -64.5508 C 64.1113 -64.5508 77.1973 -51.4648 77.2461 -35.2051 C 77.2461 -18.9453 64.1602 -5.85938 47.9004 -5.85938 Z M 30.5664 -28.6621 L 47.8516 -28.6621 C 50.1953 -28.6621 52.0508 -30.5176 52.0508 -32.8613 L 52.0508 -55.7129 C 52.0508 -58.0566 50.1953 -59.8633 47.8516 -59.8633 C 45.5078 -59.8633 43.6523 -58.0566 43.6523 -55.7129 L 43.6523 -37.0605 L 30.5664 -37.0605 C 28.2227 -37.0605 26.3672 -35.2051 26.3672 -32.8613 C 26.3672 -30.5176 28.2227 -28.6621 30.5664 -28.6621 Z"/>
  </g>
  <g id="Heavy-S" transform="matrix(1 0 0 1 2587.96 696)">
   <path d="M 48.7305 6.68945 C 71.8262 6.68945 90.625 -12.1094 90.625 -35.2051 C 90.625 -58.3008 71.8262 -77.0996 48.7305 -77.0996 C 25.6348 -77.0996 6.83594 -58.3008 6.83594 -35.2051 C 6.83594 -12.1094 25.6348 6.68945 48.7305 6.68945 Z M 48.7305 -7.22656 C 33.3008 -7.22656 20.752 -19.7266 20.752 -35.2051 C 20.752 -50.6836 33.3008 -63.1836 48.7305 -63.1836 C 64.209 -63.1836 76.709 -50.6836 76.709 -35.2051 C 76.709 -19.7266 64.209 -7.22656 48.7305 -7.22656 Z M 32.6172 -27.4902 L 48.7305 -27.4902 C 51.416 -27.4902 53.5645 -29.5898 53.5645 -32.3242 L 53.5645 -53.9062 C 53.5645 -56.6406 51.416 -58.7402 48.7305 -58.7402 C 46.0449 -58.7402 43.9453 -56.6406 43.9453 -53.9062 L 43.9453 -37.1094 L 32.6172 -37.1094 C 29.9316 -37.1094 27.7832 -35.0098 27.7832 -32.3242 C 27.7832 -29.5898 29.9316 -27.4902 32.6172 -27.4902 Z"/>
  </g>
  <g id="Black-S" transform="matrix(1 0 0 1 2883.89 696)">
   <path d="M 49.5117 7.4707 C 73.0957 7.4707 92.1875 -11.6211 92.1875 -35.2051 C 92.1875 -58.7891 73.0957 -77.8809 49.5117 -77.8809 C 25.9277 -77.8809 6.83594 -58.7891 6.83594 -35.2051 C 6.83594 -11.6211 25.9277 7.4707 49.5117 7.4707 Z M 49.5117 -8.44727 C 34.7656 -8.44727 22.7539 -20.459 22.7539 -35.2051 C 22.7539 -49.9512 34.7656 -61.9141 49.5117 -61.9141 C 64.2578 -61.9141 76.2695 -49.9512 76.2207 -35.2051 C 76.2207 -20.459 64.2578 -8.44727 49.5117 -8.44727 Z M 34.4238 -26.4648 L 49.5117 -26.4648 C 52.5391 -26.4648 54.8828 -28.8086 54.8828 -31.8359 L 54.8828 -52.3438 C 54.8828 -55.3223 52.5391 -57.7148 49.5117 -57.7148 C 46.5332 -57.7148 44.1406 -55.3223 44.1406 -52.3438 L 44.1406 -37.207 L 34.4238 -37.207 C 31.4453 -37.207 29.0527 -34.8145 29.0527 -31.8359 C 29.0527 -28.8086 31.4453 -26.4648 34.4238 -26.4648 Z"/>
  </g>
  <g id="Ultralight-M" transform="matrix(1 0 0 1 503.656 1126)">
   <path d="M 56.0547 12.207 C 82.0801 12.207 103.369 -9.08203 103.369 -35.1562 C 103.369 -61.1816 82.0801 -82.4707 56.0547 -82.4707 C 30.0293 -82.4707 8.74023 -61.1816 8.74023 -35.1562 C 8.74023 -9.08203 30.0293 12.207 56.0547 12.207 Z M 56.0547 9.81445 C 31.25 9.81445 11.1328 -10.3516 11.1328 -35.1562 C 11.1328 -59.9121 31.25 -80.0781 56.0547 -80.0781 C 80.8105 -80.0781 100.977 -59.9121 100.977 -35.1562 C 100.977 -10.3516 80.8105 9.81445 56.0547 9.81445 Z M 27.4902 -31.4453 L 56.0547 -31.4453 C 56.7871 -31.4453 57.3242 -31.9824 57.3242 -32.7148 L 57.3242 -69.5312 C 57.3242 -70.2148 56.7871 -70.7031 56.0547 -70.7031 C 55.4688 -70.7031 54.8828 -70.2148 54.8828 -69.5312 L 54.8828 -33.8379 L 27.4902 -33.8379 C 26.8066 -33.8379 26.3184 -33.3008 26.3184 -32.7148 C 26.3184 -31.9824 26.8066 -31.4453 27.4902 -31.4453 Z"/>
  </g>
  <g id="Thin-M" transform="matrix(1 0 0 1 799.806 1126)">
   <path d="M 56.5918 12.7441 C 82.9102 12.7441 104.492 -8.83789 104.492 -35.1562 C 104.492 -61.4746 82.9102 -83.0566 56.5918 -83.0566 C 30.3223 -83.0566 8.74023 -61.4746 8.74023 -35.1562 C 8.74023 -8.83789 30.3223 12.7441 56.5918 12.7441 Z M 56.5918 8.98438 C 32.2266 8.98438 12.4512 -10.791 12.4512 -35.1562 C 12.4512 -59.5215 32.2266 -79.2969 56.5918 -79.2969 C 80.957 -79.2969 100.781 -59.5215 100.781 -35.1562 C 100.781 -10.791 81.0059 8.98438 56.5918 8.98438 Z M 28.7598 -31.1035 L 56.5918 -31.1035 C 57.5684 -31.1035 58.3496 -31.8359 58.3496 -32.8613 L 58.3496 -68.7988 C 58.3496 -69.7266 57.5684 -70.459 56.5918 -70.459 C 55.7129 -70.459 54.9316 -69.7266 54.9316 -68.7988 L 54.9316 -34.5215 L 28.7598 -34.5215 C 27.7344 -34.5215 27.0508 -33.7402 27.0508 -32.8613 C 27.0508 -31.8359 27.7344 -31.1035 28.7598 -31.1035 Z"/>
  </g>
  <g id="Light-M" transform="matrix(1 0 0 1 1095.42 1126)">
   <path d="M 57.7148 13.7695 C 84.5215 13.7695 106.689 -8.39844 106.689 -35.2051 C 106.689 -62.0117 84.4727 -84.1797 57.666 -84.1797 C 30.8594 -84.1797 8.74023 -62.0117 8.74023 -35.2051 C 8.74023 -8.39844 30.8594 13.7695 57.7148 13.7695 Z M 57.7148 7.4707 C 34.082 7.4707 15.0879 -11.5723 15.0879 -35.2051 C 15.0879 -58.8379 34.0332 -77.832 57.666 -77.832 C 81.2988 -77.832 100.342 -58.8379 100.342 -35.2051 C 100.391 -11.5723 81.2988 7.4707 57.7148 7.4707 Z M 31.1523 -30.4688 L 57.666 -30.4688 C 59.1797 -30.4688 60.3516 -31.6406 60.3516 -33.1543 L 60.3516 -67.3828 C 60.3516 -68.8965 59.1797 -70.0195 57.666 -70.0195 C 56.2012 -70.0195 55.0293 -68.8965 55.0293 -67.3828 L 55.0293 -35.791 L 31.1523 -35.791 C 29.6387 -35.791 28.4668 -34.6191 28.4668 -33.1543 C 28.4668 -31.6406 29.6387 -30.4688 31.1523 -30.4688 Z"/>
  </g>
  <g id="Regular-M" transform="matrix(1 0 0 1 1391.32 1126)">
   <path d="M 58.5449 14.5508 C 85.7422 14.5508 108.35 -8.00781 108.35 -35.2539 C 108.35 -62.4512 85.6934 -85.0586 58.4961 -85.0586 C 31.25 -85.0586 8.74023 -62.4512 8.74023 -35.2539 C 8.74023 -8.00781 31.2988 14.5508 58.5449 14.5508 Z M 58.5449 6.25 C 35.498 6.25 17.0898 -12.207 17.0898 -35.2539 C 17.0898 -58.252 35.4492 -76.7578 58.4961 -76.7578 C 81.4941 -76.7578 100 -58.252 100.049 -35.2539 C 100.098 -12.207 81.543 6.25 58.5449 6.25 Z M 32.959 -29.9805 L 58.4961 -29.9805 C 60.4004 -29.9805 61.9141 -31.4453 61.9141 -33.3984 L 61.9141 -66.3086 C 61.9141 -68.2129 60.4004 -69.6777 58.4961 -69.6777 C 56.5918 -69.6777 55.127 -68.2129 55.127 -66.3086 L 55.127 -36.7676 L 32.959 -36.7676 C 31.0547 -36.7676 29.5898 -35.3027 29.5898 -33.3984 C 29.5898 -31.4453 31.0547 -29.9805 32.959 -29.9805 Z"/>
  </g>
  <g id="Medium-M" transform="matrix(1 0 0 1 1687.33 1126)">
   <path d="M 59.2285 15.2832 C 86.8652 15.2832 109.717 -7.56836 109.717 -35.2051 C 109.717 -62.8906 86.8164 -85.7422 59.1797 -85.7422 C 31.543 -85.7422 8.74023 -62.8906 8.74023 -35.2051 C 8.74023 -7.56836 31.5918 15.2832 59.2285 15.2832 Z M 59.2285 5.17578 C 36.8164 5.17578 18.8477 -12.8418 18.8477 -35.2051 C 18.8477 -57.6172 36.7676 -75.6348 59.1797 -75.6348 C 81.5918 -75.6348 99.6094 -57.6172 99.6582 -35.2051 C 99.6582 -12.8418 81.6406 5.17578 59.2285 5.17578 Z M 34.6191 -29.1016 L 59.1797 -29.1016 C 61.377 -29.1016 63.1348 -30.8105 63.1348 -33.0078 L 63.1348 -64.9414 C 63.1348 -67.1387 61.377 -68.8477 59.1797 -68.8477 C 56.9824 -68.8477 55.2734 -67.1387 55.2734 -64.9414 L 55.2734 -36.9141 L 34.6191 -36.9141 C 32.4219 -36.9141 30.7129 -35.2051 30.7129 -33.0078 C 30.7129 -30.8105 32.4219 -29.1016 34.6191 -29.1016 Z"/>
  </g>
  <g id="Semibold-M" transform="matrix(1 0 0 1 1983.5 1126)">
   <path d="M 59.7656 15.8203 C 87.7441 15.8203 110.791 -7.22656 110.791 -35.2051 C 110.791 -63.1836 87.6953 -86.2793 59.7168 -86.2793 C 31.7383 -86.2793 8.74023 -63.1836 8.74023 -35.2051 C 8.74023 -7.22656 31.7871 15.8203 59.7656 15.8203 Z M 59.7656 4.3457 C 37.8418 4.3457 20.2148 -13.2812 20.2148 -35.2051 C 20.2148 -57.1289 37.793 -74.8047 59.7168 -74.8047 C 81.6406 -74.8047 99.3164 -57.1289 99.3164 -35.2051 C 99.3652 -13.2812 81.6895 4.3457 59.7656 4.3457 Z M 35.8887 -28.418 L 59.7168 -28.418 C 62.1582 -28.418 64.0625 -30.3223 64.0625 -32.7637 L 64.0625 -63.916 C 64.0625 -66.3086 62.1582 -68.2129 59.7168 -68.2129 C 57.3242 -68.2129 55.4199 -66.3086 55.4199 -63.916 L 55.4199 -37.0605 L 35.8887 -37.0605 C 33.4473 -37.0605 31.543 -35.1562 31.543 -32.7637 C 31.543 -30.3223 33.4473 -28.418 35.8887 -28.418 Z"/>
  </g>
  <g id="Bold-M" transform="matrix(1 0 0 1 2279.5 1126)">
   <path d="M 60.4492 16.5039 C 88.8672 16.5039 112.207 -6.78711 112.207 -35.2051 C 112.207 -63.623 88.8672 -86.9629 60.4492 -86.9629 C 32.0312 -86.9629 8.74023 -63.623 8.74023 -35.2051 C 8.74023 -6.78711 32.0801 16.5039 60.4492 16.5039 Z M 60.4492 3.22266 C 39.1602 3.22266 22.0215 -13.916 22.0215 -35.2051 C 22.0215 -56.4941 39.1602 -73.6816 60.4492 -73.6816 C 81.7383 -73.6816 98.877 -56.4941 98.9258 -35.2051 C 98.9258 -13.916 81.7871 3.22266 60.4492 3.22266 Z M 37.5 -27.5391 L 60.4492 -27.5391 C 63.1836 -27.5391 65.2832 -29.6875 65.2832 -32.4219 L 65.2832 -62.5 C 65.2832 -65.2344 63.1836 -67.334 60.4492 -67.334 C 57.7148 -67.334 55.6152 -65.2344 55.6152 -62.5 L 55.6152 -37.2559 L 37.5 -37.2559 C 34.8145 -37.2559 32.666 -35.1074 32.666 -32.4219 C 32.666 -29.6875 34.8145 -27.5391 37.5 -27.5391 Z"/>
  </g>
  <g id="Heavy-M" transform="matrix(1 0 0 1 2575.19 1126)">
   <path d="M 61.4746 17.5781 C 90.5273 17.5781 114.258 -6.15234 114.258 -35.2051 C 114.258 -64.2578 90.5273 -87.9883 61.4746 -87.9883 C 32.4219 -87.9883 8.74023 -64.2578 8.74023 -35.2051 C 8.74023 -6.15234 32.4707 17.5781 61.4746 17.5781 Z M 61.4746 1.66016 C 41.1133 1.66016 24.6582 -14.8438 24.6582 -35.2051 C 24.6582 -55.5664 41.1133 -72.0703 61.4746 -72.0703 C 81.8359 -72.0703 98.3398 -55.5664 98.3398 -35.2051 C 98.3398 -14.8438 81.8848 1.66016 61.4746 1.66016 Z M 39.9414 -26.2695 L 61.4746 -26.2695 C 64.5996 -26.2695 67.0898 -28.7109 67.0898 -31.8848 L 67.0898 -60.498 C 67.0898 -63.6719 64.5996 -66.1133 61.4746 -66.1133 C 58.3496 -66.1133 55.8594 -63.6719 55.8594 -60.498 L 55.8594 -37.5 L 39.9414 -37.5 C 36.7676 -37.5 34.3262 -35.0098 34.3262 -31.8848 C 34.3262 -28.7109 36.7676 -26.2695 39.9414 -26.2695 Z"/>
  </g>
  <g id="Black-M" transform="matrix(1 0 0 1 2871 1126)">
   <path d="M 62.4023 18.457 C 91.9922 18.457 116.064 -5.61523 116.064 -35.2051 C 116.064 -64.7949 91.9922 -88.8672 62.4023 -88.8672 C 32.8125 -88.8672 8.74023 -64.7949 8.74023 -35.2051 C 8.74023 -5.61523 32.8125 18.457 62.4023 18.457 Z M 62.4023 0.195312 C 42.8223 0.195312 27.002 -15.625 27.002 -35.2051 C 27.002 -54.7363 42.8223 -70.6055 62.4023 -70.6055 C 81.9824 -70.6055 97.8027 -54.7363 97.8027 -35.2051 C 97.8027 -15.625 81.9824 0.195312 62.4023 0.195312 Z M 42.041 -25.0977 L 62.4023 -25.0977 C 65.918 -25.0977 68.7012 -27.8809 68.7012 -31.3965 L 68.7012 -58.7402 C 68.7012 -62.2559 65.918 -64.9902 62.4023 -64.9902 C 58.8867 -64.9902 56.1035 -62.2559 56.1035 -58.7402 L 56.1035 -37.6953 L 42.041 -37.6953 C 38.5254 -37.6953 35.791 -34.9121 35.791 -31.3965 C 35.791 -27.8809 38.5254 -25.0977 42.041 -25.0977 Z"/>
  </g>
  <g id="Ultralight-L" transform="matrix(1 0 0 1 487.641 1556)">
   <path d="M 72.0703 25.7324 C 105.566 25.7324 132.91 -1.61133 132.91 -35.1074 C 132.91 -68.5547 105.566 -95.8984 72.0703 -95.8984 C 38.623 -95.8984 11.2793 -68.5547 11.2793 -35.1074 C 11.2793 -1.61133 38.623 25.7324 72.0703 25.7324 Z M 72.0703 23.2422 C 39.9414 23.2422 13.7695 -2.97852 13.7695 -35.1074 C 13.7695 -67.2363 39.9414 -93.4082 72.0703 -93.4082 C 104.199 -93.4082 130.42 -67.2363 130.371 -35.1074 C 130.371 -2.97852 104.199 23.2422 72.0703 23.2422 Z M 34.9609 -30.4688 L 72.0703 -30.4688 C 72.9004 -30.4688 73.4863 -31.0547 73.4863 -31.8848 L 73.4863 -79.834 C 73.4863 -80.5664 72.9004 -81.0547 72.0703 -81.0547 C 71.4355 -81.0547 70.8496 -80.5664 70.8496 -79.834 L 70.8496 -33.1543 L 34.9609 -33.1543 C 34.1309 -33.1543 33.6426 -32.5195 33.6426 -31.8848 C 33.6426 -31.0547 34.1309 -30.4688 34.9609 -30.4688 Z"/>
  </g>
  <g id="Thin-L" transform="matrix(1 0 0 1 783.717 1556)">
   <path d="M 72.7051 26.3184 C 106.494 26.3184 134.131 -1.36719 134.131 -35.1074 C 134.131 -68.8965 106.445 -96.582 72.7051 -96.582 C 38.916 -96.582 11.2793 -68.8965 11.2793 -35.1074 C 11.2793 -1.36719 38.916 26.3184 72.7051 26.3184 Z M 72.7051 22.3145 C 41.0156 22.3145 15.2344 -3.41797 15.2344 -35.1074 C 15.2344 -66.8457 41.0156 -92.5781 72.7051 -92.5781 C 104.395 -92.5781 130.127 -66.8457 130.176 -35.1074 C 130.176 -3.41797 104.395 22.3145 72.7051 22.3145 Z M 36.3281 -30.0781 L 72.7051 -30.0781 C 73.8281 -30.0781 74.6582 -30.957 74.6582 -32.0801 L 74.6582 -79.0039 C 74.6582 -80.0293 73.8281 -80.8105 72.7051 -80.8105 C 71.7285 -80.8105 70.8984 -80.0293 70.8984 -79.0039 L 70.8984 -33.8867 L 36.3281 -33.8867 C 35.2051 -33.8867 34.4238 -33.0566 34.4238 -32.0801 C 34.4238 -30.957 35.2051 -30.0781 36.3281 -30.0781 Z"/>
  </g>
  <g id="Light-L" transform="matrix(1 0 0 1 1079.21 1556)">
   <path d="M 73.9258 27.4902 C 108.301 27.4902 136.572 -0.830078 136.572 -35.1562 C 136.572 -69.5312 108.252 -97.8516 73.877 -97.8516 C 39.5508 -97.8516 11.2793 -69.5312 11.2793 -35.1562 C 11.2793 -0.830078 39.5508 27.4902 73.9258 27.4902 Z M 73.9258 20.6055 C 43.0664 20.6055 18.1641 -4.3457 18.1641 -35.1562 C 18.1641 -66.0156 43.0664 -90.918 73.877 -90.918 C 104.736 -90.918 129.639 -66.0156 129.688 -35.1562 C 129.736 -4.3457 104.785 20.6055 73.9258 20.6055 Z M 39.0137 -29.3945 L 73.877 -29.3945 C 75.5859 -29.3945 76.9043 -30.7129 76.9043 -32.4219 L 76.9043 -77.3926 C 76.9043 -79.0527 75.5859 -80.3223 73.877 -80.3223 C 72.2656 -80.3223 70.9961 -79.0527 70.9961 -77.3926 L 70.9961 -35.3027 L 39.0137 -35.3027 C 37.3047 -35.3027 36.0352 -34.0332 36.0352 -32.4219 C 36.0352 -30.7129 37.3047 -29.3945 39.0137 -29.3945 Z"/>
  </g>
  <g id="Regular-L" transform="matrix(1 0 0 1 1374.99 1556)">
   <path d="M 74.8535 28.3691 C 109.668 28.3691 138.428 -0.390625 138.428 -35.2051 C 138.428 -70.0195 109.619 -98.7793 74.8047 -98.7793 C 39.9902 -98.7793 11.2793 -70.0195 11.2793 -35.2051 C 11.2793 -0.390625 40.0391 28.3691 74.8535 28.3691 Z M 74.8535 19.2871 C 44.6289 19.2871 20.4102 -5.0293 20.4102 -35.2051 C 20.4102 -65.3809 44.5801 -89.6973 74.8047 -89.6973 C 104.98 -89.6973 129.297 -65.3809 129.346 -35.2051 C 129.395 -5.0293 105.029 19.2871 74.8535 19.2871 Z M 41.0645 -28.8574 L 74.8047 -28.8574 C 76.9531 -28.8574 78.6133 -30.5176 78.6133 -32.666 L 78.6133 -76.2207 C 78.6133 -78.3203 76.9531 -79.9805 74.8047 -79.9805 C 72.7051 -79.9805 71.0449 -78.3203 71.0449 -76.2207 L 71.0449 -36.4258 L 41.0645 -36.4258 C 38.916 -36.4258 37.2559 -34.7656 37.2559 -32.666 C 37.2559 -30.5176 38.916 -28.8574 41.0645 -28.8574 Z"/>
  </g>
  <g id="Medium-L" transform="matrix(1 0 0 1 1670.9 1556)">
   <path d="M 75.6348 29.1992 C 110.938 29.1992 140.039 0.0488281 140.039 -35.2051 C 140.039 -70.459 110.889 -99.6094 75.5859 -99.6094 C 40.332 -99.6094 11.2793 -70.459 11.2793 -35.2051 C 11.2793 0.0488281 40.3809 29.1992 75.6348 29.1992 Z M 75.6348 18.0664 C 46.1426 18.0664 22.4609 -5.71289 22.4609 -35.2051 C 22.4609 -64.6973 46.0938 -88.4766 75.5859 -88.4766 C 105.127 -88.4766 128.857 -64.6973 128.906 -35.2051 C 128.955 -5.71289 105.176 18.0664 75.6348 18.0664 Z M 42.9199 -27.9297 L 75.5859 -27.9297 C 78.125 -27.9297 80.0293 -29.8828 80.0293 -32.373 L 80.0293 -74.7559 C 80.0293 -77.1973 78.125 -79.1016 75.5859 -79.1016 C 73.1445 -79.1016 71.2402 -77.1973 71.2402 -74.7559 L 71.2402 -36.7676 L 42.9199 -36.7676 C 40.4297 -36.7676 38.5254 -34.8145 38.5254 -32.373 C 38.5254 -29.8828 40.4297 -27.9297 42.9199 -27.9297 Z"/>
  </g>
  <g id="Semibold-L" transform="matrix(1 0 0 1 1967 1556)">
   <path d="M 76.2695 29.7852 C 111.914 29.7852 141.26 0.439453 141.26 -35.2051 C 141.26 -70.8496 111.865 -100.244 76.2207 -100.244 C 40.5762 -100.244 11.2793 -70.8496 11.2793 -35.2051 C 11.2793 0.439453 40.625 29.7852 76.2695 29.7852 Z M 76.2695 17.0898 C 47.3145 17.0898 24.0234 -6.25 24.0234 -35.2051 C 24.0234 -64.209 47.2656 -87.5 76.2207 -87.5 C 105.225 -87.5 128.516 -64.209 128.564 -35.2051 C 128.613 -6.25 105.273 17.0898 76.2695 17.0898 Z M 44.3359 -27.2461 L 76.2207 -27.2461 C 79.0039 -27.2461 81.1523 -29.3945 81.1523 -32.1777 L 81.1523 -73.6328 C 81.1523 -76.3672 79.0039 -78.4668 76.2207 -78.4668 C 73.5352 -78.4668 71.3867 -76.3672 71.3867 -73.6328 L 71.3867 -37.0117 L 44.3359 -37.0117 C 41.6016 -37.0117 39.4531 -34.8633 39.4531 -32.1777 C 39.4531 -29.3945 41.6016 -27.2461 44.3359 -27.2461 Z"/>
  </g>
  <g id="Bold-L" transform="matrix(1 0 0 1 2262.9 1556)">
   <path d="M 77.0996 30.6152 C 113.184 30.6152 142.92 0.878906 142.92 -35.2051 C 142.92 -71.3379 113.135 -101.025 77.0508 -101.025 C 40.918 -101.025 11.2793 -71.3379 11.2793 -35.2051 C 11.2793 0.878906 40.9668 30.6152 77.0996 30.6152 Z M 77.0996 15.8691 C 48.7793 15.8691 26.0742 -6.93359 26.0742 -35.2051 C 26.0742 -63.4766 48.7793 -86.2793 77.0508 -86.2793 C 105.322 -86.2793 128.125 -63.4766 128.125 -35.2051 C 128.174 -6.93359 105.371 15.8691 77.0996 15.8691 Z M 46.2402 -26.3672 L 77.0508 -26.3672 C 80.1758 -26.3672 82.5684 -28.7598 82.5684 -31.8848 L 82.5684 -72.1191 C 82.5684 -75.2441 80.1758 -77.6367 77.0508 -77.6367 C 73.9746 -77.6367 71.5332 -75.2441 71.5332 -72.1191 L 71.5332 -37.4023 L 46.2402 -37.4023 C 43.1152 -37.4023 40.7227 -34.9609 40.7227 -31.8848 C 40.7227 -28.7598 43.1152 -26.3672 46.2402 -26.3672 Z"/>
  </g>
  <g id="Heavy-L" transform="matrix(1 0 0 1 2558.42 1556)">
   <path d="M 78.2715 31.7871 C 115.039 31.7871 145.264 1.61133 145.264 -35.2051 C 145.264 -72.0215 115.039 -102.197 78.2227 -102.197 C 41.4551 -102.197 11.2793 -72.0215 11.2793 -35.2051 C 11.2793 1.61133 41.4551 31.7871 78.2715 31.7871 Z M 78.2715 14.0137 C 50.9766 14.0137 29.0527 -7.95898 29.0527 -35.2051 C 29.0527 -62.5 50.9766 -84.4727 78.2227 -84.4727 C 105.518 -84.4727 127.49 -62.5 127.49 -35.2051 C 127.539 -7.95898 105.518 14.0137 78.2715 14.0137 Z M 48.9746 -25.0488 L 78.2227 -25.0488 C 81.8359 -25.0488 84.668 -27.8809 84.668 -31.4941 L 84.668 -69.9707 C 84.668 -73.584 81.8359 -76.416 78.2227 -76.416 C 74.6582 -76.416 71.8262 -73.584 71.8262 -69.9707 L 71.8262 -37.8906 L 48.9746 -37.8906 C 45.3613 -37.8906 42.5293 -35.0586 42.5293 -31.4941 C 42.5293 -27.8809 45.3613 -25.0488 48.9746 -25.0488 Z"/>
  </g>
  <g id="Black-L" transform="matrix(1 0 0 1 2854.08 1556)">
   <path d="M 79.2969 32.8613 C 116.748 32.8613 147.363 2.19727 147.363 -35.2051 C 147.363 -72.6074 116.699 -103.271 79.2969 -103.271 C 41.8945 -103.271 11.2793 -72.6074 11.2793 -35.2051 C 11.2793 2.19727 41.8945 32.8613 79.2969 32.8613 Z M 79.2969 12.4023 C 52.9297 12.4023 31.7383 -8.83789 31.7383 -35.2051 C 31.7383 -61.5723 52.9297 -82.8125 79.2969 -82.8125 C 105.664 -82.8125 126.904 -61.5723 126.953 -35.2051 C 126.953 -8.83789 105.664 12.4023 79.2969 12.4023 Z M 51.416 -23.877 L 79.2969 -23.877 C 83.3496 -23.877 86.5234 -27.0508 86.5234 -31.1035 L 86.5234 -68.0664 C 86.5234 -72.1191 83.3496 -75.293 79.2969 -75.293 C 75.2441 -75.293 72.0703 -72.1191 72.0703 -68.0664 L 72.0703 -38.3789 L 51.416 -38.3789 C 47.3633 -38.3789 44.1895 -35.1562 44.1895 -31.1035 C 44.1895 -27.0508 47.3633 -23.877 51.416 -23.877 Z"/>
  </g>
 </g>
</svg>
