<?xml version="1.0" encoding="UTF-8"?>
<!--Generator: Apple Native CoreSVG 123-->
<!DOCTYPE svg
PUBLIC "-//W3C//DTD SVG 1.1//EN"
       "http://www.w3.org/Graphics/SVG/1.1/DTD/svg11.dtd">
<svg version="1.1" xmlns="http://www.w3.org/2000/svg" xmlns:xlink="http://www.w3.org/1999/xlink" width="3300" height="2200">
 <!--glyph: "uni10064B.medium", point size: 100.000000, font version: "Version 15.0d4e20", template writer version: "2"-->
 <g id="Notes">
  <rect height="2200" id="artboard" style="fill:white;opacity:1" width="3300" x="0" y="0"/>
  <line id="" style="fill:none;stroke:black;opacity:1;stroke-width:0.5;" x1="263" x2="3036" y1="292" y2="292"/>
  <text style="stroke:none;fill:black;font-family:-apple-system,&quot;SF Pro Display&quot;,&quot;SF Pro Text&quot;,Helvetica,sans-serif;font-weight:bold;" transform="matrix(1 0 0 1 263 322)">Weight/Scale Variations</text>
  <text style="stroke:none;fill:black;font-family:-apple-system,&quot;SF Pro Display&quot;,&quot;SF Pro Text&quot;,Helvetica,sans-serif;text-anchor:middle;" transform="matrix(1 0 0 1 559.711 322)">Ultralight</text>
  <text style="stroke:none;fill:black;font-family:-apple-system,&quot;SF Pro Display&quot;,&quot;SF Pro Text&quot;,Helvetica,sans-serif;text-anchor:middle;" transform="matrix(1 0 0 1 856.422 322)">Thin</text>
  <text style="stroke:none;fill:black;font-family:-apple-system,&quot;SF Pro Display&quot;,&quot;SF Pro Text&quot;,Helvetica,sans-serif;text-anchor:middle;" transform="matrix(1 0 0 1 1153.13 322)">Light</text>
  <text style="stroke:none;fill:black;font-family:-apple-system,&quot;SF Pro Display&quot;,&quot;SF Pro Text&quot;,Helvetica,sans-serif;text-anchor:middle;" transform="matrix(1 0 0 1 1449.84 322)">Regular</text>
  <text style="stroke:none;fill:black;font-family:-apple-system,&quot;SF Pro Display&quot;,&quot;SF Pro Text&quot;,Helvetica,sans-serif;text-anchor:middle;" transform="matrix(1 0 0 1 1746.56 322)">Medium</text>
  <text style="stroke:none;fill:black;font-family:-apple-system,&quot;SF Pro Display&quot;,&quot;SF Pro Text&quot;,Helvetica,sans-serif;text-anchor:middle;" transform="matrix(1 0 0 1 2043.27 322)">Semibold</text>
  <text style="stroke:none;fill:black;font-family:-apple-system,&quot;SF Pro Display&quot;,&quot;SF Pro Text&quot;,Helvetica,sans-serif;text-anchor:middle;" transform="matrix(1 0 0 1 2339.98 322)">Bold</text>
  <text style="stroke:none;fill:black;font-family:-apple-system,&quot;SF Pro Display&quot;,&quot;SF Pro Text&quot;,Helvetica,sans-serif;text-anchor:middle;" transform="matrix(1 0 0 1 2636.69 322)">Heavy</text>
  <text style="stroke:none;fill:black;font-family:-apple-system,&quot;SF Pro Display&quot;,&quot;SF Pro Text&quot;,Helvetica,sans-serif;text-anchor:middle;" transform="matrix(1 0 0 1 2933.4 322)">Black</text>
  <line id="" style="fill:none;stroke:black;opacity:1;stroke-width:0.5;" x1="263" x2="3036" y1="1903" y2="1903"/>
  <g id="" transform="matrix(1 0 0 1 263 1933)">
   <path d="M 9.24805 0.830078 C 13.5547 0.830078 17.1387 -2.74414 17.1387 -7.05078 C 17.1387 -11.3574 13.5449 -14.9316 9.23828 -14.9316 C 4.94141 -14.9316 1.36719 -11.3574 1.36719 -7.05078 C 1.36719 -2.74414 4.95117 0.830078 9.24805 0.830078 Z M 9.24805 -0.654297 C 5.70312 -0.654297 2.87109 -3.49609 2.87109 -7.05078 C 2.87109 -10.6055 5.69336 -13.4473 9.23828 -13.4473 C 12.793 -13.4473 15.6348 -10.6055 15.6445 -7.05078 C 15.6543 -3.49609 12.8027 -0.654297 9.24805 -0.654297 Z M 9.22852 -3.42773 C 9.69727 -3.42773 9.9707 -3.74023 9.9707 -4.25781 L 9.9707 -6.31836 L 12.1973 -6.31836 C 12.6953 -6.31836 13.0371 -6.57227 13.0371 -7.04102 C 13.0371 -7.51953 12.7148 -7.7832 12.1973 -7.7832 L 9.9707 -7.7832 L 9.9707 -10.0098 C 9.9707 -10.5273 9.69727 -10.8496 9.22852 -10.8496 C 8.75977 -10.8496 8.50586 -10.5078 8.50586 -10.0098 L 8.50586 -7.7832 L 6.29883 -7.7832 C 5.78125 -7.7832 5.44922 -7.51953 5.44922 -7.04102 C 5.44922 -6.57227 5.80078 -6.31836 6.29883 -6.31836 L 8.50586 -6.31836 L 8.50586 -4.25781 C 8.50586 -3.75977 8.75977 -3.42773 9.22852 -3.42773 Z"/>
  </g>
  <g id="" transform="matrix(1 0 0 1 281.506 1933)">
   <path d="M 11.709 2.91016 C 17.1484 2.91016 21.6699 -1.60156 21.6699 -7.05078 C 21.6699 -12.4902 17.1387 -17.0117 11.6992 -17.0117 C 6.25 -17.0117 1.74805 -12.4902 1.74805 -7.05078 C 1.74805 -1.60156 6.25977 2.91016 11.709 2.91016 Z M 11.709 1.25 C 7.09961 1.25 3.41797 -2.44141 3.41797 -7.05078 C 3.41797 -11.6504 7.08984 -15.3516 11.6992 -15.3516 C 16.2988 -15.3516 20 -11.6504 20.0098 -7.05078 C 20.0195 -2.44141 16.3086 1.25 11.709 1.25 Z M 11.6797 -2.41211 C 12.207 -2.41211 12.5195 -2.77344 12.5195 -3.33984 L 12.5195 -6.23047 L 15.5762 -6.23047 C 16.123 -6.23047 16.5039 -6.51367 16.5039 -7.03125 C 16.5039 -7.55859 16.1426 -7.86133 15.5762 -7.86133 L 12.5195 -7.86133 L 12.5195 -10.9277 C 12.5195 -11.5039 12.207 -11.8555 11.6797 -11.8555 C 11.1621 -11.8555 10.8789 -11.4844 10.8789 -10.9277 L 10.8789 -7.86133 L 7.83203 -7.86133 C 7.25586 -7.86133 6.89453 -7.55859 6.89453 -7.03125 C 6.89453 -6.51367 7.28516 -6.23047 7.83203 -6.23047 L 10.8789 -6.23047 L 10.8789 -3.33984 C 10.8789 -2.79297 11.1621 -2.41211 11.6797 -2.41211 Z"/>
  </g>
  <g id="" transform="matrix(1 0 0 1 304.914 1933)">
   <path d="M 14.9707 5.67383 C 21.9336 5.67383 27.6855 -0.078125 27.6855 -7.04102 C 27.6855 -14.0039 21.9238 -19.7559 14.9609 -19.7559 C 7.99805 -19.7559 2.25586 -14.0039 2.25586 -7.04102 C 2.25586 -0.078125 8.00781 5.67383 14.9707 5.67383 Z M 14.9707 3.85742 C 8.92578 3.85742 4.08203 -1.00586 4.08203 -7.04102 C 4.08203 -13.0762 8.91602 -17.9395 14.9609 -17.9395 C 20.9961 -17.9395 25.8594 -13.0762 25.8691 -7.04102 C 25.8789 -1.00586 21.0059 3.85742 14.9707 3.85742 Z M 14.9414 -1.06445 C 15.5176 -1.06445 15.8594 -1.45508 15.8594 -2.06055 L 15.8594 -6.13281 L 20.0977 -6.13281 C 20.6934 -6.13281 21.1133 -6.46484 21.1133 -7.02148 C 21.1133 -7.59766 20.7227 -7.93945 20.0977 -7.93945 L 15.8594 -7.93945 L 15.8594 -12.1875 C 15.8594 -12.8027 15.5176 -13.1934 14.9414 -13.1934 C 14.3848 -13.1934 14.0625 -12.7832 14.0625 -12.1875 L 14.0625 -7.93945 L 9.82422 -7.93945 C 9.20898 -7.93945 8.80859 -7.59766 8.80859 -7.02148 C 8.80859 -6.46484 9.23828 -6.13281 9.82422 -6.13281 L 14.0625 -6.13281 L 14.0625 -2.06055 C 14.0625 -1.47461 14.3848 -1.06445 14.9414 -1.06445 Z"/>
  </g>
  <text style="stroke:none;fill:black;font-family:-apple-system,&quot;SF Pro Display&quot;,&quot;SF Pro Text&quot;,Helvetica,sans-serif;font-weight:bold;" transform="matrix(1 0 0 1 263 1953)">Design Variations</text>
  <text style="stroke:none;fill:black;font-family:-apple-system,&quot;SF Pro Display&quot;,&quot;SF Pro Text&quot;,Helvetica,sans-serif;" transform="matrix(1 0 0 1 263 1971)">Symbols are supported in up to nine weights and three scales.</text>
  <text style="stroke:none;fill:black;font-family:-apple-system,&quot;SF Pro Display&quot;,&quot;SF Pro Text&quot;,Helvetica,sans-serif;" transform="matrix(1 0 0 1 263 1989)">For optimal layout with text and other symbols, vertically align</text>
  <text style="stroke:none;fill:black;font-family:-apple-system,&quot;SF Pro Display&quot;,&quot;SF Pro Text&quot;,Helvetica,sans-serif;" transform="matrix(1 0 0 1 263 2007)">symbols with the adjacent text.</text>
  <rect height="14" id="" style="fill:#00AEEF;stroke:none;opacity:0.4;" width="3" x="776" y="1919"/>
  <g id="" transform="matrix(1 0 0 1 779 1933)">
   <path d="M 10.5273 0 L 12.373 0 L 7.17773 -14.0918 L 5.43945 -14.0918 L 0.244141 0 L 2.08984 0 L 3.50586 -4.0332 L 9.11133 -4.0332 Z M 6.2793 -11.9531 L 6.33789 -11.9531 L 8.59375 -5.52734 L 4.02344 -5.52734 Z"/>
  </g>
  <rect height="14" id="" style="fill:#00AEEF;stroke:none;opacity:0.4;" width="3" x="791.617" y="1919"/>
  <text style="stroke:none;fill:black;font-family:-apple-system,&quot;SF Pro Display&quot;,&quot;SF Pro Text&quot;,Helvetica,sans-serif;font-weight:bold;" transform="matrix(1 0 0 1 776 1953)">Side Bearings</text>
  <text style="stroke:none;fill:black;font-family:-apple-system,&quot;SF Pro Display&quot;,&quot;SF Pro Text&quot;,Helvetica,sans-serif;" transform="matrix(1 0 0 1 776 1971)">Horizontal padding on the left and right side of each symbol</text>
  <text style="stroke:none;fill:black;font-family:-apple-system,&quot;SF Pro Display&quot;,&quot;SF Pro Text&quot;,Helvetica,sans-serif;" transform="matrix(1 0 0 1 776 1989)">can be adjusted by modifying the width of the blue rectangles.</text>
  <text style="stroke:none;fill:black;font-family:-apple-system,&quot;SF Pro Display&quot;,&quot;SF Pro Text&quot;,Helvetica,sans-serif;" transform="matrix(1 0 0 1 776 2007)">Modifications are automatically applied proportionally to all</text>
  <text style="stroke:none;fill:black;font-family:-apple-system,&quot;SF Pro Display&quot;,&quot;SF Pro Text&quot;,Helvetica,sans-serif;" transform="matrix(1 0 0 1 776 2025)">scales and weights.</text>
  <g id="" transform="matrix(1 0 0 1 1289 1933)">
   <path d="M 2.96875 2.35352 L 3.80859 3.19336 C 4.84375 4.22852 6.12305 4.15039 7.19727 2.97852 L 16.1621 -6.82617 C 16.5527 -6.74805 16.9629 -6.8457 17.4902 -7.02148 C 18.1738 -7.25586 18.2715 -7.25586 18.3887 -7.13867 C 18.5352 -7.01172 18.4863 -6.89453 18.2422 -6.25 C 17.8809 -5.33203 17.8125 -4.79492 18.5547 -4.02344 L 19.4238 -3.13477 C 20.2734 -2.24609 21.3281 -2.26562 22.2168 -3.14453 L 25.0586 -5.97656 C 25.9473 -6.86523 25.957 -7.92969 25.0781 -8.7793 L 24.1797 -9.64844 C 23.4082 -10.4004 22.8711 -10.3516 21.9629 -9.98047 C 21.3184 -9.72656 21.2012 -9.6875 21.0645 -9.81445 C 20.9375 -9.93164 20.9473 -10.0391 21.1816 -10.7129 C 21.5332 -11.6895 21.5723 -12.2852 20.752 -13.0957 L 19.3359 -14.5117 C 15.1953 -18.6133 11.2305 -18.7402 7.65625 -15.4395 C 7.08008 -14.9023 6.99219 -14.1504 7.53906 -13.6133 L 7.79297 -13.3594 C 8.22266 -12.9297 8.86719 -12.8418 9.41406 -13.1152 C 11.0645 -13.9453 12.2559 -14.0234 13.457 -12.9785 L 13.0273 -11.416 C 12.8516 -10.8008 12.793 -10.3418 12.9199 -9.93164 L 3.18359 -1.04492 C 2.02148 0.0292969 1.93359 1.32812 2.96875 2.35352 Z M 8.96484 -14.4922 C 8.89648 -14.5703 8.86719 -14.6582 8.99414 -14.7559 C 11.709 -17.2852 15.0391 -16.8457 18.3496 -13.5254 L 19.6973 -12.168 C 20.0879 -11.7773 20.0977 -11.582 19.8828 -10.8691 C 19.6582 -10.127 19.502 -9.53125 20.1465 -8.88672 C 20.8105 -8.22266 21.2891 -8.41797 22.207 -8.63281 C 22.9004 -8.79883 23.0664 -8.79883 23.4473 -8.41797 L 24.0918 -7.77344 C 24.4043 -7.48047 24.4141 -7.32422 24.0723 -6.97266 L 21.2207 -4.13086 C 20.8887 -3.79883 20.7227 -3.79883 20.4297 -4.10156 L 19.7852 -4.75586 C 19.4141 -5.13672 19.4141 -5.30273 19.5801 -6.01562 C 19.7852 -6.88477 19.9805 -7.38281 19.3262 -8.04688 C 18.6719 -8.7207 18.0762 -8.57422 17.3438 -8.33008 C 16.5625 -8.06641 16.3281 -8.06641 15.8984 -8.49609 L 14.6094 -9.78516 C 14.1699 -10.2246 14.1309 -10.4395 14.2676 -10.9082 L 15.0293 -13.3984 C 13.3887 -15.2832 11.4941 -15.5566 9.20898 -14.4434 C 9.11133 -14.3945 9.04297 -14.4141 8.96484 -14.4922 Z M 3.96484 1.36719 C 3.52539 0.927734 3.54492 0.537109 4.14062 -0.00976562 L 13.7402 -8.81836 L 15 -7.55859 L 6.17188 2.02148 C 5.625 2.60742 5.24414 2.64648 4.79492 2.19727 Z"/>
  </g>
  <text style="stroke:none;fill:black;font-family:-apple-system,&quot;SF Pro Display&quot;,&quot;SF Pro Text&quot;,Helvetica,sans-serif;font-weight:bold;" transform="matrix(1 0 0 1 1289 1953)">Exporting</text>
  <text style="stroke:none;fill:black;font-family:-apple-system,&quot;SF Pro Display&quot;,&quot;SF Pro Text&quot;,Helvetica,sans-serif;" transform="matrix(1 0 0 1 1289 1971)">Symbols should be outlined when exporting to ensure the</text>
  <text style="stroke:none;fill:black;font-family:-apple-system,&quot;SF Pro Display&quot;,&quot;SF Pro Text&quot;,Helvetica,sans-serif;" transform="matrix(1 0 0 1 1289 1989)">design is preserved when submitting to Xcode.</text>
  <text id="template-version" style="stroke:none;fill:black;font-family:-apple-system,&quot;SF Pro Display&quot;,&quot;SF Pro Text&quot;,Helvetica,sans-serif;text-anchor:end;" transform="matrix(1 0 0 1 3036 1933)">Template v.0.1</text>
  <text style="stroke:none;fill:black;font-family:-apple-system,&quot;SF Pro Display&quot;,&quot;SF Pro Text&quot;,Helvetica,sans-serif;text-anchor:end;" transform="matrix(1 0 0 1 3036 1951)">Generated from map.fill</text>
  <text style="stroke:none;fill:black;font-family:-apple-system,&quot;SF Pro Display&quot;,&quot;SF Pro Text&quot;,Helvetica,sans-serif;text-anchor:end;" transform="matrix(1 0 0 1 3036 1969)">Typeset at 100 points</text>
  <text style="stroke:none;fill:black;font-family:-apple-system,&quot;SF Pro Display&quot;,&quot;SF Pro Text&quot;,Helvetica,sans-serif;" transform="matrix(1 0 0 1 263 726)">Small</text>
  <text style="stroke:none;fill:black;font-family:-apple-system,&quot;SF Pro Display&quot;,&quot;SF Pro Text&quot;,Helvetica,sans-serif;" transform="matrix(1 0 0 1 263 1156)">Medium</text>
  <text style="stroke:none;fill:black;font-family:-apple-system,&quot;SF Pro Display&quot;,&quot;SF Pro Text&quot;,Helvetica,sans-serif;" transform="matrix(1 0 0 1 263 1586)">Large</text>
 </g>
 <g id="Guides">
  <g id="H-reference" style="fill:#27AAE1;stroke:none;" transform="matrix(1 0 0 1 339 696)">
   <path d="M 54.9316 0 L 57.666 0 L 30.5664 -70.459 L 28.0762 -70.459 L 0.976562 0 L 3.66211 0 L 12.9395 -24.4629 L 45.7031 -24.4629 Z M 29.1992 -67.0898 L 29.4434 -67.0898 L 44.8242 -26.709 L 13.8184 -26.709 Z"/>
  </g>
  <line id="Baseline-S" style="fill:none;stroke:#27AAE1;opacity:1;stroke-width:0.577;" x1="263" x2="3036" y1="696" y2="696"/>
  <line id="Capline-S" style="fill:none;stroke:#27AAE1;opacity:1;stroke-width:0.577;" x1="263" x2="3036" y1="625.541" y2="625.541"/>
  <g id="H-reference" style="fill:#27AAE1;stroke:none;" transform="matrix(1 0 0 1 339 1126)">
   <path d="M 54.9316 0 L 57.666 0 L 30.5664 -70.459 L 28.0762 -70.459 L 0.976562 0 L 3.66211 0 L 12.9395 -24.4629 L 45.7031 -24.4629 Z M 29.1992 -67.0898 L 29.4434 -67.0898 L 44.8242 -26.709 L 13.8184 -26.709 Z"/>
  </g>
  <line id="Baseline-M" style="fill:none;stroke:#27AAE1;opacity:1;stroke-width:0.577;" x1="263" x2="3036" y1="1126" y2="1126"/>
  <line id="Capline-M" style="fill:none;stroke:#27AAE1;opacity:1;stroke-width:0.577;" x1="263" x2="3036" y1="1055.54" y2="1055.54"/>
  <g id="H-reference" style="fill:#27AAE1;stroke:none;" transform="matrix(1 0 0 1 339 1556)">
   <path d="M 54.9316 0 L 57.666 0 L 30.5664 -70.459 L 28.0762 -70.459 L 0.976562 0 L 3.66211 0 L 12.9395 -24.4629 L 45.7031 -24.4629 Z M 29.1992 -67.0898 L 29.4434 -67.0898 L 44.8242 -26.709 L 13.8184 -26.709 Z"/>
  </g>
  <line id="Baseline-L" style="fill:none;stroke:#27AAE1;opacity:1;stroke-width:0.577;" x1="263" x2="3036" y1="1556" y2="1556"/>
  <line id="Capline-L" style="fill:none;stroke:#27AAE1;opacity:1;stroke-width:0.577;" x1="263" x2="3036" y1="1485.54" y2="1485.54"/>
  <rect height="119.336" id="left-margin" style="fill:#00AEEF;stroke:none;opacity:0.4;" width="12.4512" x="1386.54" y="1030.79"/>
  <rect height="119.336" id="right-margin" style="fill:#00AEEF;stroke:none;opacity:0.4;" width="12.5" x="1500.65" y="1030.79"/>
 </g>
 <g id="Symbols">
  <g id="Ultralight-S" transform="matrix(1 0 0 1 513.495 696)">
   <path d="M 56.3965 0.439453 L 56.3965 -59.0332 L 38.1836 -70.0195 C 37.4512 -70.5078 36.6699 -70.8008 35.8887 -70.9961 L 35.8887 -11.9141 L 54.6387 -0.390625 C 55.2734 0 55.8594 0.292969 56.3965 0.439453 Z M 12.3535 -1.02539 C 12.9883 -1.02539 13.623 -1.2207 14.3066 -1.61133 L 32.8125 -12.0605 L 32.8125 -70.9473 C 32.0312 -70.8008 31.25 -70.459 30.4688 -69.9707 L 11.9141 -58.6426 C 10.498 -57.8613 9.76562 -57.0801 9.76562 -55.2734 L 9.76562 -3.80859 C 9.76562 -2.00195 10.9375 -1.02539 12.3535 -1.02539 Z M 59.4727 0.439453 C 60.0098 0.244141 60.5957 0 61.1816 -0.390625 L 80.5176 -11.8164 C 81.8848 -12.6465 82.666 -13.3789 82.666 -15.1855 L 82.666 -66.6504 C 82.666 -68.5059 81.4941 -69.4336 80.0293 -69.4336 C 79.4434 -69.4336 78.8086 -69.2383 78.125 -68.8965 L 59.4727 -58.7402 Z"/>
  </g>
  <g id="Thin-S" transform="matrix(1 0 0 1 809.279 696)">
   <path d="M 57.3242 1.12305 L 57.3242 -59.6191 L 38.916 -70.752 C 38.1836 -71.2402 37.4023 -71.5332 36.6211 -71.7285 L 36.6211 -10.9863 L 55.5664 0.341797 C 56.2012 0.683594 56.7871 0.976562 57.3242 1.12305 Z M 12.8418 -0.244141 C 13.5742 -0.244141 14.3066 -0.488281 15.1367 -0.927734 L 32.959 -10.8887 L 32.959 -71.4844 C 32.2266 -71.2891 31.4453 -70.9473 30.7129 -70.459 L 12.2559 -59.4238 C 10.5957 -58.4473 9.76562 -57.4219 9.76562 -55.4199 L 9.76562 -3.51562 C 9.76562 -1.41602 11.0352 -0.244141 12.8418 -0.244141 Z M 60.9863 1.12305 C 61.4746 0.927734 62.0117 0.732422 62.5488 0.390625 L 82.0801 -11.084 C 83.6914 -12.0117 84.5215 -13.0371 84.5215 -15.0879 L 84.5215 -66.9922 C 84.5215 -69.0918 83.252 -70.166 81.4453 -70.166 C 80.7129 -70.166 79.9805 -69.9707 79.1504 -69.5312 L 60.9863 -59.5703 Z"/>
  </g>
  <g id="Light-S" transform="matrix(1 0 0 1 1104.16 696)">
   <path d="M 59.082 2.44141 L 59.082 -60.7422 L 40.332 -72.168 C 39.6484 -72.6074 38.8672 -72.9004 38.1348 -73.0469 L 38.1348 -9.27734 L 57.3242 1.66016 C 57.9102 2.00195 58.4961 2.24609 59.082 2.44141 Z M 13.8184 1.2207 C 14.6973 1.2207 15.625 0.976562 16.748 0.341797 L 33.3008 -8.69141 L 33.3008 -72.5098 C 32.5684 -72.168 31.8359 -71.8262 31.1035 -71.3867 L 12.8906 -60.8398 C 10.791 -59.6191 9.76562 -58.0078 9.76562 -55.5664 L 9.76562 -2.88086 C 9.76562 -0.244141 11.2793 1.2207 13.8184 1.2207 Z M 63.916 2.39258 C 64.3066 2.24609 64.7461 2.05078 65.1367 1.80664 L 85.0586 -9.57031 C 87.1582 -10.791 88.1836 -12.4023 88.1836 -14.8438 L 88.1836 -67.5781 C 88.1836 -70.2148 86.6211 -71.6797 84.1309 -71.6797 C 83.2031 -71.6797 82.3242 -71.3867 81.1523 -70.752 L 63.916 -61.2305 Z"/>
  </g>
  <g id="Regular-S" transform="matrix(1 0 0 1 1399.5 696)">
   <path d="M 60.4004 3.41797 L 60.4004 -61.5723 L 41.3574 -73.2422 C 40.7227 -73.6328 39.9902 -73.9258 39.2578 -74.0723 L 39.2578 -7.95898 L 58.6426 2.68555 C 59.2285 2.97852 59.8145 3.22266 60.4004 3.41797 Z M 14.502 2.39258 C 15.5762 2.39258 16.6016 2.05078 18.0176 1.31836 L 33.5449 -6.98242 L 33.5449 -73.2422 C 32.8613 -72.9004 32.1289 -72.5098 31.4453 -72.0703 L 13.3789 -61.9141 C 10.9375 -60.5469 9.76562 -58.4473 9.76562 -55.7129 L 9.76562 -2.39258 C 9.76562 0.683594 11.4746 2.39258 14.502 2.39258 Z M 66.1133 3.36914 C 66.4551 3.22266 66.8457 3.07617 67.1387 2.88086 L 87.3047 -8.44727 C 89.7949 -9.81445 90.918 -11.9141 90.918 -14.6484 L 90.918 -68.0176 C 90.918 -71.0938 89.209 -72.8027 86.1816 -72.8027 C 85.1074 -72.8027 84.082 -72.4609 82.7148 -71.7285 L 66.1133 -62.5 Z"/>
  </g>
  <g id="Medium-S" transform="matrix(1 0 0 1 1695.19 696)">
   <path d="M 62.0117 4.49219 L 62.0117 -62.4512 L 43.3105 -73.7305 C 42.2363 -74.3652 41.1133 -74.9023 39.9902 -75.0977 L 39.9902 -7.27539 L 58.9844 3.22266 C 59.9121 3.71094 61.0352 4.24805 62.0117 4.49219 Z M 68.0664 3.95508 C 68.5059 3.80859 68.9453 3.61328 69.3359 3.36914 L 88.8184 -7.56836 C 91.6992 -9.17969 92.9688 -11.4258 92.9688 -14.5508 L 92.9688 -68.4082 C 92.9688 -71.9238 90.8203 -74.0234 87.2559 -74.0234 C 85.8398 -74.0234 84.5703 -73.584 82.9102 -72.5586 L 68.0664 -64.0137 Z M 15.4785 3.61328 C 16.8945 3.61328 18.2129 3.125 19.873 2.14844 L 33.8867 -5.66406 L 33.8867 -74.0234 C 33.2031 -73.6328 32.4707 -73.2422 31.7871 -72.8516 L 13.9648 -62.8418 C 11.0352 -61.2305 9.76562 -58.9844 9.76562 -55.8105 L 9.76562 -2.05078 C 9.76562 1.46484 11.9141 3.61328 15.4785 3.61328 Z"/>
  </g>
  <g id="Semibold-S" transform="matrix(1 0 0 1 1991.09 696)">
   <path d="M 63.2812 5.27344 L 63.2812 -63.1348 L 44.7754 -74.1211 C 43.4082 -74.8535 41.9434 -75.6348 40.5273 -75.8301 L 40.5273 -6.78711 L 59.2285 3.61328 C 60.4492 4.24805 61.9141 5.0293 63.2812 5.27344 Z M 69.5312 4.44336 C 70.0684 4.24805 70.5566 4.00391 71.0449 3.71094 L 89.9414 -6.83594 C 93.2129 -8.69141 94.5801 -11.084 94.5801 -14.502 L 94.5801 -68.6523 C 94.5801 -72.5098 92.041 -75 88.0859 -75 C 86.4258 -75 84.9609 -74.4141 83.0566 -73.2422 L 69.5312 -65.1855 Z M 16.2598 4.54102 C 17.9199 4.54102 19.3848 4.00391 21.2891 2.83203 L 34.1797 -4.6875 L 34.1797 -74.6094 C 33.4473 -74.2676 32.7148 -73.877 32.0312 -73.4375 L 14.4043 -63.5254 C 11.1328 -61.7188 9.76562 -59.3262 9.76562 -55.8594 L 9.76562 -1.75781 C 9.76562 2.09961 12.2559 4.54102 16.2598 4.54102 Z"/>
  </g>
  <g id="Bold-S" transform="matrix(1 0 0 1 2286.78 696)">
   <path d="M 64.8926 6.34766 L 64.8926 -64.0137 L 46.7285 -74.6094 C 44.9219 -75.5859 43.0664 -76.6113 41.2598 -76.8555 L 41.2598 -6.15234 L 59.5703 4.10156 C 61.084 4.93164 63.1348 6.05469 64.8926 6.34766 Z M 71.5332 5.07812 C 72.168 4.88281 72.7051 4.54102 73.291 4.15039 L 91.4551 -5.95703 C 95.166 -8.00781 96.6309 -10.5957 96.6309 -14.4531 L 96.6309 -68.9941 C 96.6309 -73.3398 93.7012 -76.2207 89.1602 -76.2207 C 87.1582 -76.2207 85.4492 -75.5371 83.252 -74.1211 L 71.5332 -66.748 Z M 17.2363 5.81055 C 19.2871 5.81055 20.9961 5.07812 23.1445 3.71094 L 34.5215 -3.36914 L 34.5215 -75.3418 C 33.7891 -75.0488 33.1055 -74.6582 32.373 -74.1699 L 14.9414 -64.502 C 11.2305 -62.4023 9.76562 -59.8633 9.76562 -55.957 L 9.76562 -1.41602 C 9.76562 2.88086 12.7441 5.81055 17.2363 5.81055 Z"/>
  </g>
  <g id="Heavy-S" transform="matrix(1 0 0 1 2581.98 696)">
   <path d="M 67.2852 7.86133 L 67.2852 -65.2832 L 49.5605 -75.293 C 47.168 -76.6113 44.7266 -78.0273 42.334 -78.3203 L 42.334 -5.17578 L 60.0098 4.83398 C 62.1094 5.95703 64.8438 7.51953 67.2852 7.86133 Z M 74.3652 6.00586 C 75.1465 5.71289 75.8301 5.32227 76.5625 4.83398 L 93.6523 -4.63867 C 98.0469 -7.03125 99.6582 -9.86328 99.6582 -14.3555 L 99.6582 -69.5312 C 99.6582 -74.5605 96.0938 -78.0273 90.7715 -78.0273 C 88.2324 -78.0273 86.1816 -77.1484 83.5449 -75.3906 L 74.3652 -68.9941 Z M 18.6523 7.61719 C 21.2402 7.61719 23.291 6.68945 25.8789 4.93164 L 35.0586 -1.46484 L 35.0586 -76.4648 C 34.2773 -76.1719 33.5938 -75.7812 32.8613 -75.293 L 15.7715 -65.8203 C 11.4258 -63.4277 9.76562 -60.5957 9.76562 -56.1035 L 9.76562 -0.927734 C 9.76562 4.10156 13.3789 7.61719 18.6523 7.61719 Z"/>
  </g>
  <g id="Black-S" transform="matrix(1 0 0 1 2877.32 696)">
   <path d="M 76.9043 6.83594 C 77.832 6.49414 78.6133 6.00586 79.4434 5.46875 L 95.6055 -3.4668 C 100.586 -6.15234 102.393 -9.27734 102.393 -14.3066 L 102.393 -69.9707 C 102.393 -75.5859 98.1934 -79.6875 92.1875 -79.6875 C 89.209 -79.6875 86.8164 -78.5645 83.8379 -76.5625 L 76.9043 -70.9961 Z M 69.3848 9.22852 L 69.3848 -66.4551 L 52.0996 -75.9277 C 49.1699 -77.4902 46.1914 -79.2969 43.2617 -79.6387 L 43.2617 -4.3457 L 60.4492 5.51758 C 62.9883 6.83594 66.4062 8.83789 69.3848 9.22852 Z M 19.9707 9.17969 C 22.9492 9.17969 25.3418 8.10547 28.3203 6.10352 L 35.5469 0.244141 L 35.5469 -77.4414 C 34.7168 -77.1973 34.0332 -76.8066 33.3008 -76.2695 L 16.5527 -67.041 C 11.5723 -64.3066 9.76562 -61.2305 9.76562 -56.2012 L 9.76562 -0.488281 C 9.76562 5.12695 13.9648 9.17969 19.9707 9.17969 Z"/>
  </g>
  <g id="Ultralight-M" transform="matrix(1 0 0 1 501.093 1126)">
   <path d="M 15.5762 8.10547 C 16.3574 8.10547 17.1387 7.86133 17.9199 7.42188 L 41.7969 -6.05469 L 41.7969 -80.6641 C 40.8203 -80.4688 39.7949 -80.0293 38.8184 -79.3945 L 15.0391 -64.8438 C 13.3789 -63.8672 12.4512 -63.0371 12.4512 -60.791 L 12.4512 4.73633 C 12.4512 6.93359 13.8672 8.10547 15.5762 8.10547 Z M 71.6309 10.0586 L 71.6309 -65.3809 L 48.4863 -79.3945 C 47.4609 -80.0293 46.4844 -80.3711 45.5078 -80.6152 L 45.5078 -5.81055 L 69.3848 8.98438 C 70.2148 9.47266 70.9473 9.86328 71.6309 10.0586 Z M 75.3418 10.0586 C 76.0254 9.81445 76.7578 9.47266 77.5879 8.98438 L 102.197 -5.66406 C 103.857 -6.64062 104.785 -7.4707 104.785 -9.7168 L 104.785 -75.2441 C 104.785 -77.4414 103.369 -78.5645 101.66 -78.5645 C 100.928 -78.5645 100.098 -78.3691 99.3164 -77.9785 L 75.3418 -64.8926 Z"/>
  </g>
  <g id="Thin-M" transform="matrix(1 0 0 1 796.754 1126)">
   <path d="M 72.6562 10.791 L 72.6562 -66.0156 L 49.3164 -80.2246 C 48.3398 -80.8105 47.3633 -81.2012 46.3379 -81.3965 L 46.3379 -4.78516 L 70.4102 9.76562 C 71.2402 10.2539 71.9727 10.5957 72.6562 10.791 Z M 16.1621 8.98438 C 16.9922 8.98438 17.9199 8.69141 18.8965 8.1543 L 41.9922 -4.78516 L 41.9922 -81.25 C 41.0156 -81.0059 40.0391 -80.5664 39.0625 -79.9316 L 15.4297 -65.6738 C 13.4766 -64.5508 12.4512 -63.3789 12.4512 -60.9375 L 12.4512 5.07812 C 12.4512 7.61719 14.0137 8.98438 16.1621 8.98438 Z M 77.0508 10.791 C 77.6855 10.5469 78.3691 10.2539 79.1016 9.81445 L 103.906 -4.78516 C 105.859 -5.9082 106.885 -7.12891 106.885 -9.57031 L 106.885 -75.5859 C 106.885 -78.125 105.322 -79.4434 103.223 -79.4434 C 102.344 -79.4434 101.465 -79.1992 100.488 -78.6621 L 77.0508 -65.8691 Z"/>
  </g>
  <g id="Light-M" transform="matrix(1 0 0 1 1091.39 1126)">
   <path d="M 74.6582 12.3047 L 74.6582 -67.2852 L 50.8789 -81.7871 C 49.9512 -82.373 49.0234 -82.7148 48.0469 -82.959 L 48.0469 -2.83203 L 72.4121 11.3281 C 73.1934 11.7188 73.9258 12.0605 74.6582 12.3047 Z M 17.2363 10.6934 C 18.3105 10.6934 19.3848 10.3516 20.7031 9.61914 L 42.3828 -2.24609 L 42.3828 -82.373 C 41.4551 -82.0312 40.4785 -81.543 39.5508 -81.0059 L 16.1621 -67.334 C 13.6719 -65.918 12.4512 -64.0625 12.4512 -61.1328 L 12.4512 5.81055 C 12.4512 8.98438 14.3066 10.6934 17.2363 10.6934 Z M 80.3223 12.2559 C 80.9082 12.0605 81.4941 11.8164 82.0801 11.4258 L 107.275 -3.125 C 109.766 -4.54102 111.035 -6.34766 111.035 -9.27734 L 111.035 -76.2695 C 111.035 -79.3945 109.18 -81.1035 106.25 -81.1035 C 105.176 -81.1035 104.102 -80.8105 102.783 -80.0781 L 80.3223 -67.7246 Z"/>
  </g>
  <g id="Regular-M" transform="matrix(1 0 0 1 1386.54 1126)">
   <path d="M 76.1719 13.4277 L 76.1719 -68.2617 L 52.0508 -83.0078 C 51.2207 -83.5449 50.2441 -83.8867 49.3164 -84.1309 L 49.3164 -1.31836 L 73.9258 12.4512 C 74.707 12.8906 75.4395 13.1836 76.1719 13.4277 Z M 18.0176 11.9629 C 19.2871 11.9629 20.5078 11.5723 22.1191 10.6934 L 42.627 -0.341797 L 42.627 -83.252 C 41.748 -82.8125 40.8203 -82.3242 39.8926 -81.7871 L 16.748 -68.5547 C 13.8184 -66.8945 12.4512 -64.5508 12.4512 -61.2793 L 12.4512 6.34766 C 12.4512 9.96094 14.5508 11.9629 18.0176 11.9629 Z M 82.8613 13.3301 C 83.3496 13.1836 83.8379 12.9883 84.3262 12.6465 L 109.863 -1.85547 C 112.744 -3.4668 114.111 -5.81055 114.111 -9.08203 L 114.111 -76.8066 C 114.111 -80.4199 112.061 -82.373 108.545 -82.373 C 107.324 -82.373 106.055 -82.0312 104.492 -81.1523 L 82.8613 -69.1406 Z"/>
  </g>
  <g id="Medium-M" transform="matrix(1 0 0 1 1682.03 1126)">
   <path d="M 78.0273 14.6484 L 78.0273 -69.2871 L 54.1992 -83.6426 C 52.9297 -84.375 51.5625 -85.0586 50.1953 -85.2539 L 50.1953 -0.488281 L 74.4629 13.1348 C 75.5371 13.7207 76.8555 14.3555 78.0273 14.6484 Z M 19.1406 13.3789 C 20.752 13.3789 22.2656 12.8418 24.1699 11.7188 L 43.0664 1.2207 L 43.0664 -84.082 C 42.1387 -83.6914 41.2109 -83.2031 40.2832 -82.666 L 17.3828 -69.6289 C 13.9648 -67.7246 12.4512 -65.1367 12.4512 -61.4258 L 12.4512 6.78711 C 12.4512 10.9375 14.9902 13.3789 19.1406 13.3789 Z M 85.1074 14.1113 C 85.6934 13.916 86.2793 13.623 86.8652 13.2812 L 111.67 -0.78125 C 115.088 -2.68555 116.602 -5.27344 116.602 -8.98438 L 116.602 -77.1973 C 116.602 -81.3477 114.062 -83.7891 109.961 -83.7891 C 108.35 -83.7891 106.836 -83.3008 104.883 -82.1777 L 85.1074 -70.8496 Z"/>
  </g>
  <g id="Semibold-M" transform="matrix(1 0 0 1 1977.79 1126)">
   <path d="M 79.3945 15.5273 L 79.3945 -70.0684 L 55.8105 -84.1309 C 54.1992 -85.0586 52.5391 -85.8887 50.8789 -86.1816 L 50.8789 0.146484 L 74.8535 13.623 C 76.2207 14.3555 77.8809 15.2344 79.3945 15.5273 Z M 86.8652 14.6973 C 87.5488 14.4531 88.1836 14.1602 88.7695 13.7695 L 113.086 0.0488281 C 116.895 -2.05078 118.506 -4.83398 118.506 -8.93555 L 118.506 -77.5391 C 118.506 -82.0801 115.576 -84.9121 110.986 -84.9121 C 109.082 -84.9121 107.373 -84.2773 105.225 -82.959 L 86.8652 -72.2168 Z M 19.9707 14.4531 C 21.875 14.4531 23.584 13.8184 25.7812 12.5 L 43.3594 2.39258 L 43.3594 -84.7656 C 42.4316 -84.375 41.5039 -83.8867 40.5762 -83.3008 L 17.8711 -70.459 C 14.0625 -68.3594 12.4512 -65.5762 12.4512 -61.4746 L 12.4512 7.08008 C 12.4512 11.6211 15.3809 14.4531 19.9707 14.4531 Z"/>
  </g>
  <g id="Bold-M" transform="matrix(1 0 0 1 2273.23 1126)">
   <path d="M 81.25 16.748 L 81.25 -71.0938 L 57.959 -84.7656 C 55.957 -85.8887 53.8574 -87.0605 51.8066 -87.3535 L 51.8066 1.02539 L 75.3418 14.2578 C 77.0996 15.2344 79.2969 16.4062 81.25 16.748 Z M 89.209 15.4785 C 89.9414 15.1855 90.625 14.8438 91.3574 14.3555 L 114.941 1.12305 C 119.287 -1.26953 120.996 -4.24805 120.996 -8.83789 L 120.996 -77.9297 C 120.996 -83.0078 117.627 -86.3281 112.402 -86.3281 C 110.107 -86.3281 108.105 -85.5469 105.615 -83.9844 L 89.209 -73.9746 Z M 21.0938 15.918 C 23.3887 15.918 25.3418 15.0879 27.832 13.5254 L 43.75 3.95508 L 43.75 -85.6445 C 42.8223 -85.2539 41.8945 -84.7656 40.9668 -84.1797 L 18.5547 -71.582 C 14.209 -69.1895 12.4512 -66.1621 12.4512 -61.5723 L 12.4512 7.51953 C 12.4512 12.5977 15.8691 15.918 21.0938 15.918 Z"/>
  </g>
  <g id="Heavy-M" transform="matrix(1 0 0 1 2568.13 1126)">
   <path d="M 83.9355 18.5059 L 83.9355 -72.5586 L 61.0352 -85.6934 C 58.4473 -87.1582 55.7129 -88.6719 53.0762 -89.0137 L 53.0762 2.24609 L 76.0742 15.2344 C 78.3691 16.4551 81.3477 18.1152 83.9355 18.5059 Z M 92.5293 16.6016 C 93.457 16.2598 94.2383 15.8203 95.0684 15.2832 L 117.627 2.73438 C 122.705 -0.0976562 124.658 -3.4668 124.658 -8.69141 L 124.658 -78.5645 C 124.658 -84.4238 120.557 -88.4277 114.453 -88.4277 C 111.572 -88.4277 109.229 -87.4023 106.25 -85.4492 L 92.5293 -76.5137 Z M 22.7051 17.9688 C 25.5371 17.9688 27.9297 16.9434 30.8594 14.9902 L 44.3359 6.25 L 44.3359 -86.9629 C 43.3594 -86.5723 42.4805 -86.084 41.5527 -85.4492 L 19.4824 -73.1445 C 14.4043 -70.3613 12.4512 -66.9922 12.4512 -61.7676 L 12.4512 8.10547 C 12.4512 13.9648 16.5527 17.9688 22.7051 17.9688 Z"/>
  </g>
  <g id="Black-M" transform="matrix(1 0 0 1 2863.21 1126)">
   <path d="M 86.3281 20.1172 L 86.3281 -73.877 L 63.8184 -86.5723 C 60.6445 -88.2812 57.4219 -90.1855 54.248 -90.5273 L 54.248 3.32031 L 76.7578 16.1133 C 79.4922 17.5781 83.1543 19.6777 86.3281 20.1172 Z M 95.5566 17.627 C 96.582 17.2363 97.4609 16.6992 98.3887 16.1133 L 120.02 4.10156 C 125.781 0.976562 127.93 -2.73438 127.93 -8.59375 L 127.93 -79.1016 C 127.93 -85.6445 123.193 -90.2832 116.26 -90.2832 C 112.891 -90.2832 110.205 -89.0625 106.787 -86.8164 L 95.5566 -78.7598 Z M 24.1211 19.8242 C 27.4902 19.8242 30.1758 18.6035 33.5938 16.3086 L 44.873 8.30078 L 44.873 -88.0859 C 43.8477 -87.6953 42.9688 -87.207 42.041 -86.5723 L 20.3125 -74.5605 C 14.5996 -71.4355 12.4512 -67.7246 12.4512 -61.8652 L 12.4512 8.64258 C 12.4512 15.1855 17.1875 19.8242 24.1211 19.8242 Z"/>
  </g>
  <g id="Ultralight-L" transform="matrix(1 0 0 1 484.516 1556)">
   <path d="M 19.873 20.3125 C 20.8008 20.3125 21.7773 20.0195 22.7539 19.4824 L 53.8574 1.85547 L 53.8574 -93.6035 C 52.5391 -93.3594 51.2695 -92.8223 49.9512 -91.9922 L 19.2383 -73.0957 C 17.2363 -71.875 16.0645 -70.9473 16.0645 -68.1641 L 16.0645 16.1621 C 16.0645 18.8965 17.8711 20.3125 19.873 20.3125 Z M 91.9922 22.8516 L 91.9922 -73.8281 L 62.207 -91.8457 C 60.8887 -92.6758 59.6191 -93.1641 58.3008 -93.457 L 58.3008 2.29492 L 89.1113 21.4844 C 90.1855 22.1191 91.1133 22.6074 91.9922 22.8516 Z M 96.4844 22.9004 C 97.3633 22.5586 98.3887 22.1191 99.4629 21.4844 L 131.104 2.53906 C 133.154 1.31836 134.277 0.390625 134.277 -2.39258 L 134.277 -86.7188 C 134.277 -89.4531 132.52 -90.7715 130.469 -90.7715 C 129.59 -90.7715 128.613 -90.5762 127.637 -90.0391 L 96.4844 -73.0957 Z"/>
  </g>
  <g id="Thin-L" transform="matrix(1 0 0 1 780.055 1556)">
   <path d="M 93.1641 23.7305 L 93.1641 -74.5605 L 63.1348 -92.7734 C 61.8652 -93.5547 60.5469 -94.043 59.2773 -94.3359 L 59.2773 3.41797 L 90.2344 22.3633 C 91.3086 22.998 92.2852 23.4863 93.1641 23.7305 Z M 20.5078 21.2891 C 21.5332 21.2891 22.6562 20.9473 23.7793 20.3125 L 54.0527 3.27148 L 54.0527 -94.2383 C 52.7832 -93.9453 51.5137 -93.4082 50.2441 -92.5781 L 19.6777 -74.0234 C 17.334 -72.6562 16.0645 -71.3379 16.0645 -68.3105 L 16.0645 16.5527 C 16.0645 19.6289 18.0176 21.2891 20.5078 21.2891 Z M 98.3887 23.6816 C 99.2188 23.3887 100.146 22.998 101.172 22.4121 L 133.057 3.51562 C 135.4 2.14844 136.621 0.830078 136.621 -2.19727 L 136.621 -87.1094 C 136.621 -90.1855 134.717 -91.748 132.227 -91.748 C 131.201 -91.748 130.078 -91.4551 128.955 -90.8691 L 98.3887 -74.1699 Z"/>
  </g>
  <g id="Light-L" transform="matrix(1 0 0 1 1074.47 1556)">
   <path d="M 95.3613 25.3906 L 95.3613 -75.9766 L 64.8926 -94.5312 C 63.6719 -95.2637 62.4023 -95.752 61.1816 -96.0449 L 61.1816 5.61523 L 92.4805 24.0723 C 93.5059 24.6582 94.4824 25.0977 95.3613 25.3906 Z M 21.6797 23.1934 C 22.998 23.1934 24.3164 22.8027 25.8301 21.9238 L 54.4922 6.10352 L 54.4922 -95.5078 C 53.2715 -95.1172 52.002 -94.5312 50.7812 -93.75 L 20.5078 -75.8301 C 17.5781 -74.1699 16.0645 -72.1191 16.0645 -68.5547 L 16.0645 17.3828 C 16.0645 21.1426 18.3594 23.1934 21.6797 23.1934 Z M 102.051 25.293 C 102.832 25.0488 103.613 24.707 104.443 24.2188 L 136.816 5.37109 C 139.746 3.71094 141.26 1.66016 141.26 -1.9043 L 141.26 -87.8418 C 141.26 -91.6016 138.965 -93.6035 135.645 -93.6035 C 134.326 -93.6035 133.008 -93.2617 131.494 -92.4316 L 102.051 -76.2695 Z"/>
  </g>
  <g id="Regular-L" transform="matrix(1 0 0 1 1369.45 1556)">
   <path d="M 97.0703 26.6113 L 97.0703 -77.0508 L 66.2109 -95.8984 C 65.0879 -96.582 63.8184 -97.0703 62.5977 -97.3633 L 62.5977 7.27539 L 94.1406 25.3906 C 95.166 25.9277 96.1426 26.3672 97.0703 26.6113 Z M 22.6074 24.6582 C 24.0723 24.6582 25.5371 24.1699 27.3926 23.1445 L 54.7852 8.20312 L 54.7852 -96.4844 C 53.6133 -95.9961 52.3926 -95.3613 51.1719 -94.6777 L 21.1426 -77.1973 C 17.7246 -75.293 16.0645 -72.6562 16.0645 -68.75 L 16.0645 17.9688 C 16.0645 22.2656 18.5547 24.6582 22.6074 24.6582 Z M 104.834 26.5137 C 105.518 26.3184 106.25 26.0254 106.934 25.5859 L 139.648 6.83594 C 143.066 4.88281 144.727 2.29492 144.727 -1.66016 L 144.727 -88.4277 C 144.727 -92.7246 142.236 -95.0684 138.184 -95.0684 C 136.719 -95.0684 135.254 -94.6289 133.398 -93.6035 L 104.834 -77.832 Z"/>
  </g>
  <g id="Medium-L" transform="matrix(1 0 0 1 1664.7 1556)">
   <path d="M 99.0234 27.9785 L 99.0234 -78.1738 L 68.3594 -96.7285 C 66.8945 -97.6074 65.2832 -98.3398 63.6719 -98.6328 L 63.6719 8.34961 L 94.9219 26.2207 C 96.2402 26.9043 97.7051 27.6367 99.0234 27.9785 Z M 23.7793 26.1719 C 25.6348 26.1719 27.3926 25.5859 29.541 24.3164 L 55.2246 10.0098 L 55.2246 -97.4609 C 54.0039 -96.9238 52.7832 -96.3379 51.6113 -95.6055 L 21.8262 -78.4668 C 17.8711 -76.2207 16.0645 -73.291 16.0645 -68.8477 L 16.0645 18.457 C 16.0645 23.3398 19.043 26.1719 23.7793 26.1719 Z M 107.471 27.4414 C 108.203 27.1973 108.984 26.8555 109.717 26.3672 L 141.846 8.05664 C 145.801 5.81055 147.607 2.88086 147.607 -1.51367 L 147.607 -88.916 C 147.607 -93.7988 144.629 -96.582 139.941 -96.582 C 138.086 -96.582 136.328 -95.9961 134.131 -94.7266 L 107.471 -79.6875 Z"/>
  </g>
  <g id="Semibold-L" transform="matrix(1 0 0 1 1960.31 1556)">
   <path d="M 100.537 28.9551 L 100.537 -79.0527 L 70.0684 -97.3633 C 68.2617 -98.3887 66.3574 -99.3164 64.502 -99.6582 L 64.502 9.17969 L 95.5078 26.8555 C 97.0703 27.6855 98.9258 28.6133 100.537 28.9551 Z M 24.6582 27.3926 C 26.8066 27.3926 28.7598 26.6602 31.25 25.1953 L 55.5664 11.4258 L 55.5664 -98.1934 C 54.3457 -97.7051 53.125 -97.0703 51.9531 -96.3379 L 22.3633 -79.3945 C 18.0176 -76.9531 16.0645 -73.7793 16.0645 -68.9453 L 16.0645 18.8477 C 16.0645 24.1699 19.4336 27.3926 24.6582 27.3926 Z M 109.424 28.1738 C 110.254 27.8809 111.035 27.5391 111.865 27.002 L 143.555 8.98438 C 147.9 6.54297 149.854 3.36914 149.854 -1.41602 L 149.854 -89.3066 C 149.854 -94.5801 146.484 -97.8027 141.26 -97.8027 C 139.111 -97.8027 137.158 -97.0703 134.717 -95.6055 L 109.424 -81.1523 Z"/>
  </g>
  <g id="Bold-L" transform="matrix(1 0 0 1 2255.55 1556)">
   <path d="M 102.539 30.3223 L 102.539 -80.1758 L 72.2656 -98.1934 C 70.0684 -99.4141 67.8223 -100.586 65.5762 -100.928 L 65.5762 10.2539 L 96.2891 27.6855 C 98.1934 28.7109 100.488 29.9316 102.539 30.3223 Z M 112.061 29.1016 C 112.939 28.8086 113.818 28.3691 114.648 27.832 L 145.752 10.2539 C 150.684 7.51953 152.783 4.00391 152.783 -1.31836 L 152.783 -89.7949 C 152.783 -95.6543 148.926 -99.3652 143.018 -99.3652 C 140.479 -99.3652 138.232 -98.5352 135.449 -96.7773 L 112.061 -83.0078 Z M 25.8301 28.9551 C 28.3691 28.9551 30.6152 28.0762 33.4473 26.3672 L 55.957 13.2324 L 55.957 -99.1699 C 54.7363 -98.6816 53.5645 -98.0469 52.3926 -97.3145 L 23.0957 -80.6641 C 18.1641 -77.9297 16.0645 -74.4141 16.0645 -69.0918 L 16.0645 19.3359 C 16.0645 25.2441 19.9219 28.9551 25.8301 28.9551 Z"/>
  </g>
  <g id="Heavy-L" transform="matrix(1 0 0 1 2550.14 1556)">
   <path d="M 105.469 32.2754 L 105.469 -81.8359 L 75.4395 -99.4141 C 72.7539 -100.928 69.9219 -102.49 67.1387 -102.832 L 67.1387 11.8164 L 97.4121 28.9062 C 99.8047 30.1758 102.832 31.8359 105.469 32.2754 Z M 115.869 30.4688 C 116.895 30.127 117.773 29.6387 118.701 29.0039 L 148.975 12.0605 C 154.736 8.88672 157.031 4.93164 157.031 -1.12305 L 157.031 -90.5273 C 157.031 -97.2168 152.49 -101.66 145.557 -101.66 C 142.48 -101.66 139.844 -100.586 136.475 -98.4863 L 115.869 -85.791 Z M 27.5391 31.2012 C 30.6152 31.2012 33.3008 30.127 36.6211 28.0273 L 56.5918 15.8691 L 56.5918 -100.586 C 55.3711 -100.098 54.1992 -99.4629 53.0273 -98.6816 L 24.1211 -82.4707 C 18.4082 -79.2969 16.0645 -75.3418 16.0645 -69.2871 L 16.0645 20.0684 C 16.0645 26.8066 20.6055 31.2012 27.5391 31.2012 Z"/>
  </g>
  <g id="Black-L" transform="matrix(1 0 0 1 2844.95 1556)">
   <path d="M 108.057 33.9844 L 108.057 -83.3008 L 78.3203 -100.488 C 75.0977 -102.246 71.7773 -104.15 68.5547 -104.541 L 68.5547 13.2324 L 98.4375 29.9805 C 101.221 31.4453 104.883 33.4961 108.057 33.9844 Z M 119.287 31.6895 C 120.361 31.2988 121.338 30.7617 122.363 30.0781 L 151.855 13.7207 C 158.301 10.1562 160.84 5.71289 160.84 -0.976562 L 160.84 -91.1621 C 160.84 -98.6328 155.664 -103.662 147.803 -103.662 C 144.238 -103.662 141.26 -102.441 137.451 -99.9512 L 119.287 -88.2324 Z M 29.1016 33.252 C 32.666 33.252 35.6445 31.9824 39.4531 29.541 L 57.1289 18.2617 L 57.1289 -101.855 C 55.9082 -101.367 54.7363 -100.684 53.5645 -99.9512 L 25.0488 -84.1309 C 18.6035 -80.5664 16.0645 -76.123 16.0645 -69.4336 L 16.0645 20.7031 C 16.0645 28.1738 21.2402 33.252 29.1016 33.252 Z"/>
  </g>
 </g>
</svg>
